<svg width="172" height="29" viewBox="0 0 172 29" fill="none" xmlns="http://www.w3.org/2000/svg">
<path d="M45.0659 29C43.647 29 42.3504 28.8777 41.1762 28.6331C40.002 28.3885 38.9868 27.9606 38.1305 27.3491C37.2988 26.7132 36.6505 25.8205 36.1857 24.671C35.7209 23.5215 35.4885 22.0296 35.4885 20.1953C35.4885 19.3637 35.5375 18.4343 35.6353 17.4071C35.7332 16.3799 35.8677 15.3527 36.0389 14.3254C36.4304 11.8063 36.9685 9.71516 37.6535 8.05206C38.3629 6.38896 39.2436 5.06823 40.2955 4.08993C41.3719 3.08717 42.6562 2.3779 44.1485 1.96212C45.6652 1.54634 47.4388 1.33845 49.4692 1.33845C50.8392 1.33845 52.1113 1.47296 53.2855 1.742C54.4597 1.98657 55.475 2.43904 56.3312 3.0994C57.2118 3.73529 57.8846 4.66469 58.3494 5.88756C58.8386 7.086 59.0833 8.65126 59.0833 10.5834C59.0833 11.3416 59.0344 12.2343 58.9365 13.2615C58.8386 14.2888 58.7041 15.3282 58.5328 16.3799C58.117 18.9724 57.5543 21.1002 56.8449 22.7633C56.1599 24.402 55.2792 25.6738 54.2029 26.5787C53.1509 27.4836 51.8666 28.1195 50.3499 28.4864C48.8576 28.8288 47.0963 29 45.0659 29ZM46.0566 23.2769C47.3776 23.2769 48.4296 23.0201 49.2124 22.5065C50.0197 21.9684 50.6435 21.1246 51.0838 19.9751C51.5486 18.8257 51.9278 17.3459 52.2213 15.5361C52.3681 14.5822 52.4904 13.6651 52.5883 12.7846C52.6862 11.9041 52.7351 11.1949 52.7351 10.6568C52.7351 9.16487 52.4048 8.1866 51.7443 7.72188C51.0838 7.25717 50.0319 7.02484 48.5886 7.02484C47.3409 7.02484 46.3135 7.25717 45.5062 7.72188C44.6989 8.16212 44.0506 8.96922 43.5614 10.1432C43.0966 11.3172 42.6929 12.9803 42.3504 15.1325C42.1792 16.0619 42.0447 16.9546 41.9468 17.8106C41.8489 18.6422 41.8 19.327 41.8 19.8651C41.8 21.2103 42.1303 22.1152 42.7908 22.5799C43.4513 23.0446 44.5399 23.2769 46.0566 23.2769ZM59.0896 28.7799L62.1719 9.0426H67.456L68.2266 10.987C69.0094 10.3755 69.939 9.86191 71.0154 9.44615C72.1162 9.03038 73.3394 8.82248 74.6849 8.82248C76.275 8.82248 77.4981 9.22603 78.3543 10.0331C79.2106 10.8402 79.6386 11.8919 79.6386 13.1882C79.6386 13.6284 79.6142 14.142 79.5653 14.729C79.5408 15.2915 79.4185 16.2087 79.1983 17.4805L77.4369 28.7799H71.0887L72.8501 17.7006C72.8991 17.2848 72.9357 16.9669 72.9602 16.7467C72.9847 16.5022 72.9969 16.3187 72.9969 16.1964C72.9969 15.6584 72.8501 15.2426 72.5565 14.9491C72.263 14.6556 71.7492 14.5089 71.0154 14.5089C70.3304 14.5089 69.6821 14.6434 69.0705 14.9124C68.4834 15.1814 67.9453 15.5361 67.456 15.9763L65.4011 28.7799H59.0896ZM88.3612 29C86.8446 29 85.5356 28.7677 84.4348 28.303C83.3584 27.8382 82.5267 27.0556 81.9395 25.955C81.3524 24.83 81.0589 23.3136 81.0589 21.4059C81.0589 20.9657 81.0833 20.4399 81.1323 19.8284C81.2056 19.2169 81.2913 18.5689 81.3891 17.884C81.7316 15.6584 82.3309 13.8852 83.1872 12.5645C84.0434 11.2438 85.0953 10.2899 86.343 9.70295C87.6152 9.11597 89.0337 8.82248 90.5996 8.82248C91.7004 8.82248 92.8379 8.94475 94.0122 9.18934C95.1864 9.40946 96.336 9.67848 97.4615 9.99644L96.8377 13.6284H92.0673C90.6242 13.6284 89.5842 14.0931 88.9483 15.0225C88.3124 15.9274 87.8475 17.2237 87.5539 18.9112C87.4805 19.4004 87.4317 19.8039 87.4071 20.1219C87.3825 20.4154 87.3704 20.6355 87.3704 20.7822C87.3704 22.0051 87.6273 22.8856 88.141 23.4237C88.6547 23.9618 89.4133 24.2308 90.4161 24.2308H95.48L94.8928 27.826C94.0609 28.1684 93.1194 28.4497 92.0673 28.6698C91.0399 28.8899 89.8043 29 88.3612 29ZM105.595 29C102.929 29 100.935 28.413 99.6139 27.2391C98.2929 26.0406 97.6324 24.3164 97.6324 22.0663C97.6324 21.3325 97.6565 20.66 97.7058 20.0485C97.7792 19.4371 97.8526 18.8501 97.926 18.2876C98.2436 16.3065 98.684 14.6923 99.247 13.445C99.8094 12.1976 100.519 11.2438 101.375 10.5834C102.231 9.89859 103.259 9.43393 104.458 9.18934C105.681 8.94475 107.112 8.82248 108.751 8.82248C110.903 8.82248 112.543 9.09149 113.668 9.62958C114.818 10.1432 115.6 10.9381 116.016 12.0142C116.432 13.0903 116.64 14.4477 116.64 16.0864C116.64 17.3093 116.53 18.6422 116.31 20.0852C115.943 22.482 115.319 24.3286 114.439 25.6249C113.582 26.8967 112.42 27.7771 110.953 28.2663C109.509 28.7554 107.723 29 105.595 29ZM106.256 23.9373C107.063 23.9373 107.699 23.815 108.164 23.5704C108.628 23.3014 108.995 22.8245 109.265 22.1396C109.558 21.4548 109.802 20.4643 109.999 19.168C110.096 18.4832 110.169 17.8718 110.219 17.3337C110.292 16.7956 110.329 16.2943 110.329 15.8296C110.329 15.047 110.145 14.5089 109.778 14.2154C109.411 13.9219 108.788 13.7751 107.907 13.7751C107.1 13.7751 106.463 13.9219 105.999 14.2154C105.534 14.4844 105.155 15.0103 104.861 15.7929C104.592 16.5755 104.36 17.7006 104.164 19.168C103.993 20.2197 103.907 21.088 103.907 21.7728C103.907 22.6044 104.091 23.1791 104.458 23.497C104.849 23.7905 105.448 23.9373 106.256 23.9373ZM125.93 28.7799C123.85 28.7799 122.284 28.413 121.233 27.6793C120.181 26.9456 119.655 25.7838 119.655 24.1941C119.655 23.7783 119.679 23.2769 119.728 22.6899C119.777 22.103 119.862 21.4426 119.985 20.7089L121.233 14.0686H118.187L118.848 10.0331L122.26 9.0426L123.948 3.50295H128.975L128.095 9.0426H132.388L131.617 14.0686H127.324L126.26 20.7089C126.211 20.9045 126.162 21.1736 126.113 21.516C126.064 21.8584 126.04 22.1519 126.04 22.3965C126.04 22.9101 126.162 23.2769 126.407 23.497C126.676 23.6927 127.091 23.815 127.654 23.8639L129.856 24.084L129.122 28.7799H125.93ZM140.607 29C137.94 29 135.947 28.413 134.626 27.2391C133.305 26.0406 132.644 24.3164 132.644 22.0663C132.644 21.3325 132.669 20.66 132.718 20.0485C132.791 19.4371 132.864 18.8501 132.938 18.2876C133.256 16.3065 133.696 14.6923 134.259 13.445C134.821 12.1976 135.531 11.2438 136.387 10.5834C137.243 9.89859 138.271 9.43393 139.469 9.18934C140.692 8.94475 142.124 8.82248 143.763 8.82248C145.916 8.82248 147.554 9.09149 148.68 9.62958C149.829 10.1432 150.613 10.9381 151.028 12.0142C151.444 13.0903 151.652 14.4477 151.652 16.0864C151.652 17.3093 151.542 18.6422 151.322 20.0852C150.955 22.482 150.331 24.3286 149.45 25.6249C148.594 26.8967 147.432 27.7771 145.964 28.2663C144.521 28.7554 142.735 29 140.607 29ZM141.268 23.9373C142.075 23.9373 142.711 23.815 143.176 23.5704C143.641 23.3014 144.008 22.8245 144.276 22.1396C144.57 21.4548 144.815 20.4643 145.01 19.168C145.108 18.4832 145.182 17.8718 145.231 17.3337C145.304 16.7956 145.341 16.2943 145.341 15.8296C145.341 15.047 145.157 14.5089 144.79 14.2154C144.423 13.9219 143.799 13.7751 142.919 13.7751C142.111 13.7751 141.476 13.9219 141.011 14.2154C140.546 14.4844 140.167 15.0103 139.873 15.7929C139.604 16.5755 139.371 17.7006 139.176 19.168C139.004 20.2197 138.919 21.088 138.919 21.7728C138.919 22.6044 139.103 23.1791 139.469 23.497C139.861 23.7905 140.46 23.9373 141.268 23.9373ZM138.038 5.63076L142.699 0.347916H146.992L149.634 5.63076H145.964L144.313 3.13608L141.708 5.63076H138.038ZM156.832 21.2592L158.079 13.5183H160.868C161.847 13.5183 162.654 13.3471 163.29 13.0047C163.926 12.6623 164.317 12.002 164.464 11.0237L164.611 10.1799C164.636 9.98423 164.648 9.77632 164.648 9.55621C164.648 8.77358 164.354 8.21102 163.767 7.86863C163.18 7.52624 162.336 7.35502 161.235 7.35502C160.232 7.35502 159.241 7.46508 158.263 7.6852C157.284 7.90532 156.281 8.17433 155.254 8.4923L155.988 3.83313C156.99 3.24614 158.177 2.74476 159.547 2.32898C160.917 1.88875 162.446 1.66863 164.134 1.66863C166.482 1.66863 168.256 2.23115 169.455 3.3562C170.653 4.45679 171.253 5.89978 171.253 7.6852C171.253 8.17433 171.216 8.66352 171.143 9.15266L170.776 11.1337C170.409 13.4572 169.503 15.2304 168.06 16.4533C166.617 17.6517 164.611 18.2509 162.042 18.2509L161.565 21.2592H156.832ZM156.281 28.8533C155.792 28.8533 155.547 28.6331 155.547 28.1929V28.0462L156.208 24.0106C156.281 23.4481 156.599 23.1669 157.162 23.1669H160.831C161.32 23.1669 161.565 23.3625 161.565 23.7538V24.0106L160.905 28.0462C160.856 28.3641 160.746 28.5842 160.574 28.7065C160.403 28.8044 160.195 28.8533 159.951 28.8533H156.281Z" fill="#312E38"/>
<path d="M28.6531 14.3253C28.658 17.3515 27.6997 20.3008 25.917 22.7463C25.917 22.7463 25.917 22.7463 25.917 22.7463C24.4763 24.7295 22.5508 26.3098 20.3247 27.336C18.0987 28.3623 15.6465 28.8002 13.2028 28.6079C10.7591 28.4156 8.40567 27.5995 6.36754 26.2376C4.32942 24.8758 2.67482 23.0137 1.56203 20.8296C0.449237 18.6455 -0.0845263 16.2124 0.0117999 13.7631C0.108126 11.3137 0.831318 8.93006 2.1122 6.8401C3.39308 4.75013 5.18879 3.02378 7.32757 1.82619C9.46636 0.628596 11.8767 -0.000177587 14.3279 1.53032e-05C14.721 1.53032e-05 15.1101 0.0157488 15.4951 0.0472164C17.7144 0.224495 19.8611 0.920242 21.7625 2.07848C23.8667 3.35553 25.6063 5.1534 26.8133 7.29858C28.0202 9.44376 28.6539 11.8638 28.6531 14.3253Z" fill="#446FC9"/>
<g opacity="0.2">
<path d="M17.4215 21.0863C17.2407 21.5663 17.5415 21.5879 17.5615 21.7887C17.5815 21.9895 17.5615 22.3703 16.9799 22.9527C16.3983 23.5351 15.4351 23.4135 15.2343 23.6543C15.0334 23.8951 14.6926 24.9184 14.211 25.26C13.7294 25.6016 13.651 25.4 12.967 25.5408C12.283 25.6816 11.7677 26.5656 11.5629 26.9848C11.3581 27.404 11.6029 28.1089 11.1213 28.1289C10.6397 28.1489 10.4189 27.1056 9.9781 26.544C9.53728 25.9824 9.39568 25.48 9.25807 24.8184C9.12047 24.1567 9.33808 22.7719 9.25807 22.2303C9.17807 21.6887 7.73083 20.7254 7.20761 20.063C6.68439 19.4006 5.96517 18.0774 6.00757 17.6357C6.06838 17.2074 6.28207 16.8156 6.60919 16.5325C6.8492 16.3517 6.75 16.2517 6.79 16.0909C6.83 15.9301 7.03 15.8901 7.07081 15.6909C7.11161 15.4917 6.9508 14.8909 6.7508 14.7885C6.55079 14.6861 6.40999 15.0285 6.28918 14.9685C6.16838 14.9085 5.80917 14.4885 5.66756 14.4468C5.52596 14.4052 5.56676 14.7077 5.36675 14.3268C5.16675 13.946 5.06515 12.9828 4.90514 12.822C4.74514 12.6612 4.62433 13.1028 4.24272 12.822C3.86111 12.5412 3.7011 11.9996 3.5403 11.9196C3.37949 11.8396 3.15949 11.9396 2.99468 11.618C2.82988 11.2964 3.13949 10.7155 2.99468 10.7755C2.84988 10.8355 2.53787 11.2972 2.45707 10.8555C2.37626 10.4139 2.85708 8.92988 2.77708 8.12746C2.69707 7.32503 2.97708 6.48181 3.5387 5.80019C3.5387 5.80019 3.6187 5.35857 3.6987 5.08016C3.77871 4.80176 5.50436 3.67612 5.70516 3.35451C5.78517 3.22091 5.81637 3.0105 5.84677 2.78409C8.30304 0.972442 11.2757 -0.00340473 14.3278 8.92565e-06C14.7209 8.92565e-06 15.11 0.0157424 15.4951 0.0472101L15.5351 0.100812C15.7087 0.320818 15.8967 0.461623 16.4047 0.648829C16.9127 0.836034 17.0335 1.07684 16.9263 1.27765C16.8191 1.47845 16.6455 1.51765 16.4463 1.53206C16.2471 1.54646 16.0583 1.43765 15.8447 1.57206C15.6311 1.70646 15.4167 2.42808 15.1359 2.46808C14.855 2.50809 14.3598 1.82806 14.2558 1.62566C14.1518 1.42325 14.4958 0.996839 14.3358 0.796033C14.1758 0.595227 13.8846 0.636028 13.4294 0.595227C12.9742 0.554425 11.919 0.729631 11.959 0.903237C11.999 1.07684 13.5102 0.876036 13.5502 1.22325C13.5902 1.57046 12.4406 2.15927 12.2398 2.10327C12.039 2.04727 11.7717 1.70326 11.4773 1.66246C11.1829 1.62166 10.9421 1.86247 10.7573 1.88967C10.5725 1.91687 10.3573 1.68886 10.0725 1.74246C9.78769 1.79606 9.72529 2.03687 9.57728 2.13047C9.42928 2.22408 9.08287 2.22408 9.04287 2.43768C9.00287 2.65129 9.48448 2.77289 9.60288 2.9065C9.72129 3.0401 9.45568 3.49452 9.57568 3.58812C9.69569 3.68172 10.4453 3.0281 10.6333 2.8681C10.8213 2.70809 10.9805 2.01287 11.3821 2.02567C11.7837 2.03847 11.9174 2.72089 12.051 2.78809C12.1846 2.8553 12.479 2.62809 12.9198 2.72089C13.3606 2.81369 13.6686 3.77772 13.7494 4.07213C13.8302 4.36654 14.0166 4.66095 13.8566 4.78095C13.6966 4.90096 12.9766 4.70095 12.8798 4.51375C12.783 4.32654 13.3598 4.04493 13.3214 3.97853C13.283 3.91213 12.947 3.81853 12.7726 3.92253C12.5982 4.02653 12.519 4.24254 12.3318 4.29934C12.1446 4.35614 11.6493 3.79132 11.5157 3.95213C11.3821 4.11293 11.6493 4.62095 11.7829 4.74095C11.9166 4.86096 12.4118 4.92816 12.4518 5.06096C12.4918 5.19377 12.1174 5.48898 11.6629 5.46098C11.2085 5.43297 10.8333 5.08656 10.6597 5.23377C10.4861 5.38097 10.5797 5.76819 10.4589 5.90259C10.3381 6.03699 9.68289 5.94259 9.36208 6.2898C9.04127 6.63701 8.88766 7.16263 8.56765 7.45704C8.24764 7.75144 8.09964 7.37703 7.67162 7.79145C7.24361 8.20586 7.17641 9.12909 7.16281 9.4499C7.14921 9.77071 7.16281 10.0251 7.05641 9.98511C6.95 9.94511 6.802 9.6651 6.762 9.4899C6.722 9.31469 6.8556 9.02188 6.8556 8.91468C6.8556 8.80748 6.24038 8.25946 5.87877 8.20586C5.51716 8.15226 5.19635 8.44587 4.92914 8.66027C4.66193 8.87468 4.18032 8.83468 4.00671 9.00828C3.83311 9.18189 3.6987 10.7203 3.83231 11.0819C3.96591 11.4436 4.14032 11.4428 4.56833 11.2556C4.99634 11.0683 4.75554 10.7067 5.00994 10.7875C5.26435 10.8683 5.39715 11.1355 5.39715 11.3476C5.39715 11.5596 4.88914 12.0676 4.95634 12.2172C5.02354 12.3668 5.46436 12.19 5.67636 12.2572C5.88837 12.3244 5.99637 12.458 5.93077 13.006C5.86517 13.554 5.90437 13.9828 6.22518 14.1628C6.54599 14.3428 6.7268 13.902 6.8652 13.9628C7.0036 14.0236 7.20681 14.3436 7.40762 14.3236C7.60842 14.3036 7.50762 14.1228 7.88763 14.0036C8.26764 13.8844 8.12764 13.8028 8.20764 13.562C8.28764 13.3212 8.52765 13.1204 8.78926 13.242C9.05087 13.3636 8.86926 13.5428 8.88926 13.7436C8.90926 13.9444 9.36928 13.9644 9.73249 14.0844C10.0957 14.2044 10.2925 14.0844 11.0125 14.3244C11.7325 14.5645 11.7749 15.2845 12.0758 15.4077C12.3766 15.5309 13.3798 15.3277 14.1022 15.8493C14.8246 16.3709 14.6238 17.3341 14.9822 17.6149C15.3407 17.8958 16.6879 18.2766 17.2095 18.3774C17.7311 18.4782 17.8111 18.1166 18.2327 18.2174C18.6544 18.3182 18.8944 18.4382 19.0328 19.0174C19.1696 19.5318 17.6015 20.6046 17.4215 21.0863Z" fill="#0FFB0A"/>
<path opacity="0.2" d="M6.64041 10.8275C6.65401 10.9411 6.98842 10.9875 7.38924 11.2155C7.79005 11.4436 7.93805 12.1116 8.15166 12.0956C8.36527 12.0796 8.29886 11.7756 8.37967 11.6956C8.46047 11.6156 8.59327 11.4412 8.37967 11.2676C8.16606 11.0939 7.95725 10.7187 7.56604 10.6651C7.17483 10.6115 7.10843 10.4515 6.93482 10.4651C6.89019 10.4654 6.84617 10.4756 6.80593 10.4949C6.7657 10.5142 6.73023 10.5422 6.70209 10.5769C6.67395 10.6115 6.65382 10.6519 6.64316 10.6953C6.63249 10.7386 6.63156 10.7838 6.64041 10.8275V10.8275Z" fill="#312E38"/>
<path opacity="0.2" d="M8.84764 11.9508C8.78764 12.1148 8.84764 12.2324 9.27565 12.3388C9.70366 12.4452 10.1045 12.2324 9.97087 12.1452C9.83727 12.058 9.63646 12.098 9.71726 11.9508C9.79807 11.8036 9.77007 11.59 9.42205 11.6308C9.07404 11.6716 8.90124 11.8044 8.84764 11.9508Z" fill="#312E38"/>
<path opacity="0.2" d="M10.3453 11.9964C10.1997 12.018 10.1181 12.2724 10.2653 12.4324C10.4125 12.5924 10.4125 12.566 10.5853 12.4324C10.7581 12.2988 11.0269 12.2324 10.9597 12.0988C10.8925 11.9652 10.4925 11.9756 10.3453 11.9964Z" fill="#312E38"/>
<path opacity="0.2" d="M11.5093 12.5436C11.5749 12.3428 11.9094 12.5436 12.0574 12.754C12.2054 12.9644 12.1374 13.2756 12.0574 13.5028C11.9774 13.73 11.9238 13.9972 11.7373 13.8908C11.5509 13.7844 11.7509 13.4628 11.7237 13.2756C11.6965 13.0884 11.4557 12.7076 11.5093 12.5436Z" fill="#312E38"/>
<path opacity="0.2" d="M17.2744 1.38485C17.204 1.55286 17.528 1.61206 17.7152 1.71926C17.9024 1.82646 18.0496 1.89287 18.1568 1.71926C18.264 1.54566 18.1168 1.34405 17.9696 1.30405C17.8224 1.26405 17.3408 1.22405 17.2744 1.38485Z" fill="#312E38"/>
<path opacity="0.2" d="M19.8016 2.9497C19.9256 3.0793 20.1361 3.0561 20.2817 3.24411C20.4273 3.43211 20.3753 3.75212 20.5625 3.84572C20.7497 3.93933 20.8825 3.84572 20.8969 3.71212C20.9113 3.57852 20.6297 3.24411 20.6569 3.1769C20.6841 3.1097 21.0449 3.27051 21.1257 3.47131C21.2065 3.67212 21.0457 3.95133 21.2321 4.00573C21.4185 4.06013 21.3793 3.81852 21.4601 3.76572C21.5409 3.71292 21.7137 3.73852 21.7001 3.57772C21.6865 3.41691 21.4721 3.0697 21.3001 2.9497C21.1281 2.82969 20.9921 2.69529 20.6985 2.62969C20.4049 2.56409 20.1233 2.61689 19.9785 2.73689C19.8336 2.85689 19.7256 2.86889 19.8016 2.9497Z" fill="#312E38"/>
<path opacity="0.2" d="M25.5889 5.47058C25.5806 5.52472 25.5541 5.57441 25.5137 5.61139C25.2321 5.81139 24.8977 5.11617 24.5105 4.98257C24.1233 4.84896 23.9505 4.35375 23.8705 4.46095C23.7905 4.56815 23.8169 4.71536 23.6969 4.88896C23.5768 5.06257 23.4024 5.02257 23.3224 5.35698C23.2424 5.69139 23.6969 6.30661 23.5896 6.50741C23.4824 6.70822 23.3496 6.64102 23.1344 6.62822C22.9192 6.61542 22.9608 6.80182 22.6808 6.72102C22.4008 6.64022 22.64 6.29301 22.2008 5.87859C21.7616 5.46418 21.612 5.38418 21.7064 5.19617C21.8008 5.00817 21.6664 4.74176 21.8664 4.71616C22.0664 4.69056 22.228 4.98337 22.3616 5.06337C22.4952 5.14337 22.6688 4.90336 22.6816 4.68896C22.6944 4.47455 22.2136 4.18094 22.0416 4.01454C21.8696 3.84813 21.848 3.24331 21.9152 3.12491C21.9824 3.00651 22.1832 3.04491 22.2352 2.7505C22.2664 2.57769 21.9952 2.28888 21.7616 2.08008C23.2295 2.97274 24.5257 4.12103 25.5889 5.47058V5.47058Z" fill="#312E38"/>
<path d="M27.5866 17.4621C27.6266 17.0341 27.4122 17.0069 27.6266 16.2181C27.841 15.4293 27.3994 14.5861 27.2386 14.4125C27.0778 14.2388 26.7306 14.2916 26.4498 14.4661C26.169 14.6405 26.3698 14.7733 26.1818 14.8405C25.9938 14.9077 25.8074 14.7997 25.6338 14.8133C25.4602 14.8269 25.2994 15.2685 24.925 15.2549C24.5505 15.2413 24.3097 14.7061 24.0289 14.3252C23.7481 13.9444 23.1721 13.7036 22.9889 13.2348C22.8057 12.766 23.1625 12.0452 23.0825 11.4964C23.0025 10.9475 22.6409 11.0683 22.5737 10.7611C22.5065 10.4539 22.6273 10.6011 22.7209 10.3059C22.8145 10.0107 22.6137 9.85151 22.8009 9.3459C22.9881 8.84028 23.3225 8.58347 23.2417 8.35627C23.1609 8.12906 22.9073 7.75465 22.8937 7.48744C22.8801 7.22023 23.1481 7.23303 23.6561 6.85782C24.1641 6.48261 24.2961 6.51061 24.6865 6.64422C24.965 6.74702 25.2513 6.82728 25.5426 6.88422C25.7698 6.92422 26.0778 7.51304 26.1714 7.48584C26.265 7.45864 26.2786 7.28583 26.3186 7.03143C26.3441 6.92099 26.4021 6.8207 26.485 6.74342C27.9946 9.16449 28.7472 11.9811 28.6465 14.8324C28.5457 17.6838 27.5961 20.4402 25.9194 22.7487C27.281 20.6638 27.5458 17.8894 27.5866 17.4621Z" fill="#0FFB0A"/>
</g>
<path opacity="0.1" d="M25.4258 23.3832C23.8976 25.2561 21.9203 26.7118 19.6781 27.6149C17.4359 28.5179 15.0017 28.839 12.602 28.5481C10.2023 28.2572 7.91529 27.3638 5.9538 25.9512C3.99231 24.5385 2.42016 22.6525 1.38371 20.4688C0.347272 18.285 -0.119756 15.8745 0.0261106 13.4617C0.171978 11.0488 0.925997 8.71214 2.21797 6.66914C3.50994 4.62614 5.29784 2.94327 7.41523 1.77721C9.53262 0.61115 11.9106 -0.000185388 14.3279 0.000122186C14.7209 0.000122186 15.1103 0.0158557 15.4959 0.0473233C15.6023 0.0553236 15.7087 0.0649241 15.8159 0.0769244C13.7909 0.296809 11.8448 0.98493 10.1317 2.08684C8.41859 3.18876 6.9854 4.67422 5.94555 6.42571C4.90569 8.1772 4.2877 10.1467 4.14048 12.1782C3.99326 14.2098 4.32083 16.2478 5.0973 18.1309C5.87376 20.014 7.07781 21.6906 8.61416 23.028C10.1505 24.3654 11.977 25.3269 13.9492 25.8365C15.9213 26.346 17.985 26.3896 19.9769 25.9638C21.9688 25.538 23.8343 24.6545 25.4258 23.3832V23.3832Z" fill="#312E38"/>
<path opacity="0.3" d="M28.653 14.3253C28.6581 17.3516 27.6998 20.3009 25.9169 22.7463C25.9169 22.7463 25.9169 22.7463 25.9169 22.7463C24.5733 24.5938 22.8091 26.095 20.7704 27.1256C22.5453 26.1094 24.0849 24.729 25.2881 23.0751C26.9748 20.7533 27.9299 17.9809 28.0313 15.113C28.1326 12.245 27.3755 9.41207 25.8569 6.97703C25.5811 6.53405 25.2809 6.10671 24.9577 5.69699C23.8897 4.33923 22.5873 3.18363 21.112 2.28488C19.1991 1.12107 17.0399 0.422326 14.8078 0.244823C14.4214 0.213622 14.0286 0.197621 13.6342 0.197621C12.4682 0.196857 11.3064 0.337078 10.1741 0.615234C11.5209 0.207179 12.9205 -0.000121145 14.3278 1.53261e-05C14.7209 1.53261e-05 15.1102 0.0157488 15.4958 0.0472165C19.0814 0.339438 22.4257 1.9705 24.8636 4.61604C27.3014 7.26157 28.6543 10.7278 28.653 14.3253V14.3253Z" fill="white"/>
<path d="M27.2163 18.195C27.1955 17.9878 27.0562 17.7822 26.8026 17.7822C26.549 17.7822 26.4098 17.9878 26.389 18.195C26.357 18.515 26.573 18.8038 26.8026 19.0678C27.0322 18.8054 27.2483 18.5142 27.2163 18.195ZM26.8026 18.4246C26.7579 18.4246 26.7141 18.4113 26.6769 18.3864C26.6396 18.3615 26.6106 18.3262 26.5935 18.2848C26.5763 18.2434 26.5718 18.1979 26.5806 18.154C26.5893 18.1101 26.6109 18.0697 26.6425 18.0381C26.6742 18.0064 26.7146 17.9848 26.7585 17.9761C26.8024 17.9674 26.8479 17.9719 26.8893 17.989C26.9307 18.0061 26.966 18.0351 26.9909 18.0724C27.0158 18.1096 27.029 18.1534 27.029 18.1982C27.0288 18.2581 27.0049 18.3156 26.9625 18.358C26.9201 18.4004 26.8626 18.4244 26.8026 18.4246V18.4246Z" fill="#ECBE2D"/>
<path d="M14.0513 22.8633C14.0161 22.5044 13.7689 22.1476 13.3345 22.1476C12.9001 22.1476 12.6539 22.5044 12.6188 22.8633C12.564 23.4167 12.9373 23.9173 13.3345 24.3744C13.7337 23.9152 14.1061 23.4146 14.0513 22.8633ZM13.3345 23.2605C13.257 23.2603 13.1813 23.2371 13.117 23.1939C13.0527 23.1507 13.0026 23.0895 12.9731 23.0178C12.9436 22.9462 12.936 22.8674 12.9512 22.7914C12.9664 22.7154 13.0039 22.6457 13.0587 22.591C13.1136 22.5362 13.1834 22.499 13.2594 22.484C13.3355 22.4689 13.4142 22.4768 13.4858 22.5065C13.5574 22.5362 13.6185 22.5864 13.6615 22.6508C13.7046 22.7153 13.7275 22.791 13.7275 22.8685C13.727 22.9723 13.6853 23.0716 13.6116 23.1447C13.5379 23.2178 13.4383 23.2587 13.3345 23.2584V23.2605Z" fill="#F28C2E"/>
<path d="M25.2499 7.82771C25.2147 7.46985 24.9675 7.11302 24.5331 7.11302C24.0987 7.11302 23.8526 7.46985 23.8174 7.82771C23.7626 8.38106 24.1359 8.88269 24.5331 9.33984C24.9323 8.88682 25.3068 8.38106 25.2499 7.82771ZM24.5331 8.22591C24.4553 8.22591 24.3793 8.20284 24.3147 8.1596C24.25 8.11637 24.1996 8.05493 24.1699 7.98305C24.1402 7.91117 24.1325 7.8321 24.1477 7.75583C24.163 7.67956 24.2005 7.60953 24.2556 7.55461C24.3106 7.49968 24.3808 7.46233 24.4571 7.44728C24.5334 7.43223 24.6124 7.44017 24.6842 7.47007C24.756 7.49998 24.8173 7.55051 24.8604 7.61528C24.9035 7.68005 24.9263 7.75614 24.9261 7.83392C24.9261 7.88548 24.916 7.93654 24.8962 7.98417C24.8764 8.0318 24.8475 8.07505 24.811 8.11147C24.7745 8.14788 24.7311 8.17673 24.6834 8.19637C24.6358 8.21601 24.5847 8.22605 24.5331 8.22591V8.22591Z" fill="#F28C2E"/>
<path d="M17.3672 19.2799C17.3382 18.9917 17.1446 18.7046 16.7918 18.7046C16.439 18.7046 16.2443 18.9917 16.2164 19.2799C16.1719 19.7251 16.4713 20.1268 16.7918 20.4941C17.1112 20.1268 17.4117 19.724 17.3672 19.2799ZM16.7918 19.5993C16.7292 19.5996 16.6679 19.5812 16.6158 19.5465C16.5637 19.5119 16.523 19.4625 16.4989 19.4047C16.4749 19.3469 16.4685 19.2833 16.4807 19.2219C16.4928 19.1605 16.5229 19.1041 16.5672 19.0598C16.6115 19.0155 16.6679 18.9854 16.7293 18.9733C16.7907 18.9611 16.8544 18.9674 16.9122 18.9915C16.97 19.0156 17.0193 19.0562 17.0539 19.1084C17.0886 19.1605 17.107 19.2218 17.1067 19.2844C17.1065 19.3678 17.0732 19.4478 17.0142 19.5068C16.9552 19.5658 16.8752 19.599 16.7918 19.5993Z" fill="#ECBE2D"/>
<path d="M8.74155 15.1822C8.71262 14.8938 8.51904 14.6076 8.16637 14.6076C7.8137 14.6076 7.62012 14.8938 7.59119 15.1822C7.54669 15.6276 7.84707 16.0296 8.16637 16.3971C8.48567 16.0296 8.78605 15.6265 8.74155 15.1822ZM8.16637 15.5063C8.10415 15.506 8.04338 15.4874 7.99175 15.4526C7.94012 15.4178 7.89994 15.3685 7.87628 15.3109C7.85262 15.2533 7.84655 15.19 7.85882 15.129C7.87109 15.0679 7.90117 15.0118 7.94525 14.9679C7.98932 14.9239 8.04542 14.894 8.10647 14.882C8.16751 14.8699 8.23076 14.8762 8.28823 14.9001C8.34569 14.924 8.3948 14.9643 8.42934 15.0161C8.46389 15.0679 8.48233 15.1288 8.48233 15.1911C8.48248 15.2326 8.4744 15.2738 8.45856 15.3121C8.44272 15.3505 8.41943 15.3854 8.39005 15.4147C8.36067 15.444 8.32577 15.4672 8.28737 15.4829C8.24898 15.4986 8.20785 15.5065 8.16637 15.5063V15.5063Z" fill="#ECBE2D"/>
<path d="M3.71482 7.13951C3.68589 6.8511 3.49231 6.56491 3.13964 6.56491C2.78696 6.56491 2.59338 6.8511 2.56446 7.13951C2.51996 7.58494 2.82034 7.98693 3.13964 8.35441C3.45893 7.98693 3.75932 7.58382 3.71482 7.13951ZM3.13964 7.45799C3.07737 7.45799 3.01649 7.43951 2.96472 7.40488C2.91294 7.37025 2.87259 7.32103 2.84876 7.26345C2.82493 7.20587 2.81869 7.1425 2.83084 7.08137C2.84299 7.02024 2.87297 6.96409 2.91701 6.92001C2.96104 6.87594 3.01714 6.84593 3.07821 6.83377C3.13929 6.82161 3.20259 6.82785 3.26012 6.8517C3.31765 6.87555 3.36683 6.91595 3.40142 6.96777C3.43602 7.01959 3.45448 7.08052 3.45448 7.14285C3.45448 7.18424 3.44634 7.22522 3.43052 7.26345C3.4147 7.30168 3.3915 7.33643 3.36227 7.36569C3.33303 7.39495 3.29832 7.41816 3.26012 7.434C3.22193 7.44984 3.18098 7.45799 3.13964 7.45799Z" fill="#F28C2E"/>
<path d="M9.85261 3.41999C9.80949 2.98114 9.50635 2.54356 8.97364 2.54356C8.44094 2.54356 8.13907 2.98114 8.09595 3.41999C8.02872 4.09856 8.4866 4.71244 8.97364 5.27305C9.46196 4.71244 9.91983 4.09856 9.85261 3.41999ZM8.97364 3.90831C8.87832 3.90831 8.78513 3.88004 8.70587 3.82708C8.62661 3.77412 8.56484 3.69885 8.52836 3.61078C8.49188 3.52271 8.48233 3.4258 8.50093 3.33231C8.51953 3.23881 8.56543 3.15293 8.63284 3.08553C8.70024 3.01812 8.78612 2.97222 8.87961 2.95362C8.97311 2.93503 9.07002 2.94457 9.15809 2.98105C9.24616 3.01753 9.32143 3.07931 9.37439 3.15857C9.42735 3.23783 9.45562 3.33101 9.45562 3.42634C9.45562 3.48963 9.44315 3.5523 9.41893 3.61078C9.39471 3.66925 9.35921 3.72239 9.31445 3.76714C9.2697 3.8119 9.21656 3.8474 9.15809 3.87162C9.09961 3.89584 9.03694 3.90831 8.97364 3.90831V3.90831Z" fill="#ECBE2D"/>
</svg>
