<svg width="503" height="480" viewBox="0 0 503 480" fill="none" xmlns="http://www.w3.org/2000/svg">
<path d="M35.4319 480C30.1827 480 25.3861 479.548 21.0419 478.643C16.6978 477.738 12.9419 476.155 9.77432 473.892C6.69721 471.54 4.2989 468.237 2.57933 463.985C0.859779 459.732 0 454.213 0 447.426C0 444.35 0.181007 440.912 0.543018 437.111C0.90503 433.311 1.40279 429.511 2.03632 425.711C3.48437 416.391 5.47542 408.655 8.00951 402.502C10.6341 396.349 13.8922 391.463 17.7838 387.844C21.7659 384.134 26.5173 381.51 32.038 379.972C37.6492 378.434 44.2107 377.665 51.7224 377.665C56.7905 377.665 61.4967 378.162 65.8409 379.157C70.185 380.062 73.9409 381.736 77.1085 384.179C80.3666 386.532 82.8554 389.97 84.575 394.494C86.385 398.928 87.2901 404.719 87.2901 411.867C87.2901 414.672 87.1091 417.974 86.747 421.775C86.385 425.575 85.8873 429.42 85.2537 433.311C83.7153 442.902 81.6336 450.774 79.0091 456.927C76.4749 462.989 73.2168 467.694 69.2347 471.042C65.343 474.39 60.5916 476.743 54.9805 478.1C49.4598 479.367 42.9436 480 35.4319 480ZM39.0973 458.827C43.9844 458.827 47.8761 457.877 50.7721 455.977C53.7587 453.986 56.0666 450.865 57.6956 446.612C59.4152 442.359 60.818 436.885 61.904 430.19C62.447 426.661 62.8995 423.268 63.2615 420.01C63.6236 416.753 63.8046 414.129 63.8046 412.138C63.8046 406.619 62.5828 403 60.1392 401.28C57.6956 399.561 53.8039 398.702 48.4643 398.702C43.8487 398.702 40.0475 399.561 37.0609 401.28C34.0744 402.909 31.676 405.895 29.866 410.238C28.1463 414.581 26.653 420.734 25.3861 428.697C24.7525 432.135 24.2548 435.438 23.8928 438.604C23.5307 441.681 23.3498 444.214 23.3498 446.205C23.3498 451.181 24.5715 454.529 27.0151 456.248C29.4587 457.968 33.4861 458.827 39.0973 458.827ZM87.3133 479.186L98.7167 406.166H118.265L121.116 413.36C124.012 411.098 127.451 409.198 131.433 407.659C135.506 406.121 140.031 405.352 145.009 405.352C150.892 405.352 155.417 406.845 158.584 409.831C161.752 412.817 163.336 416.708 163.336 421.503C163.336 423.132 163.245 425.032 163.064 427.204C162.974 429.285 162.521 432.678 161.707 437.383L155.191 479.186H131.705L138.221 438.197C138.402 436.659 138.538 435.483 138.628 434.668C138.719 433.763 138.764 433.085 138.764 432.633C138.764 430.642 138.221 429.104 137.135 428.018C136.049 426.932 134.149 426.389 131.433 426.389C128.9 426.389 126.501 426.887 124.239 427.882C122.066 428.877 120.075 430.19 118.265 431.818L110.663 479.186H87.3133ZM195.605 480C189.995 480 185.152 479.14 181.079 477.421C177.097 475.702 174.02 472.807 171.848 468.735C169.676 464.573 168.59 458.963 168.59 451.905C168.59 450.277 168.68 448.331 168.862 446.069C169.133 443.807 169.45 441.409 169.812 438.876C171.079 430.642 173.296 424.082 176.464 419.196C179.631 414.31 183.523 410.781 188.139 408.609C192.846 406.438 198.094 405.352 203.886 405.352C207.959 405.352 212.167 405.804 216.512 406.709C220.856 407.524 225.109 408.519 229.272 409.695L226.965 423.132H209.317C203.977 423.132 200.13 424.851 197.777 428.289C195.425 431.637 193.705 436.433 192.619 442.676C192.347 444.486 192.167 445.979 192.076 447.155C191.985 448.241 191.94 449.055 191.94 449.598C191.94 454.122 192.89 457.379 194.791 459.37C196.691 461.361 199.498 462.356 203.208 462.356H221.942L219.77 475.657C216.692 476.924 213.209 477.964 209.317 478.778C205.515 479.593 200.944 480 195.605 480ZM259.363 480C249.498 480 242.123 477.828 237.235 473.485C232.348 469.052 229.905 462.673 229.905 454.348C229.905 451.634 229.994 449.146 230.176 446.883C230.448 444.621 230.719 442.45 230.991 440.369C232.166 433.04 233.795 427.068 235.878 422.453C237.959 417.839 240.583 414.31 243.752 411.867C246.919 409.333 250.72 407.614 255.155 406.709C259.68 405.804 264.974 405.352 271.038 405.352C279.001 405.352 285.066 406.347 289.229 408.338C293.482 410.238 296.378 413.179 297.918 417.16C299.456 421.141 300.225 426.163 300.225 432.225C300.225 436.749 299.818 441.681 299.004 447.019C297.646 455.886 295.338 462.718 292.08 467.513C288.911 472.219 284.614 475.476 279.184 477.286C273.843 479.095 267.237 480 259.363 480ZM261.807 461.27C264.794 461.27 267.146 460.818 268.866 459.913C270.585 458.918 271.942 457.153 272.939 454.62C274.025 452.086 274.929 448.422 275.654 443.626C276.015 441.093 276.286 438.831 276.468 436.84C276.74 434.849 276.876 432.995 276.876 431.275C276.876 428.38 276.197 426.389 274.839 425.303C273.482 424.218 271.174 423.675 267.916 423.675C264.929 423.675 262.575 424.218 260.857 425.303C259.137 426.299 257.734 428.244 256.648 431.14C255.652 434.035 254.792 438.197 254.069 443.626C253.435 447.517 253.119 450.729 253.119 453.262C253.119 456.339 253.797 458.465 255.155 459.641C256.602 460.727 258.82 461.27 261.807 461.27ZM334.592 479.186C326.898 479.186 321.106 477.828 317.215 475.114C313.323 472.399 311.378 468.102 311.378 462.22C311.378 460.682 311.467 458.827 311.649 456.656C311.83 454.484 312.146 452.041 312.6 449.327L317.215 424.761H305.948L308.391 409.831L321.016 406.166L327.261 385.672H345.859L342.601 406.166H358.485L355.634 424.761H339.75L335.814 449.327C335.631 450.05 335.451 451.046 335.271 452.312C335.088 453.579 334.999 454.665 334.999 455.57C334.999 457.47 335.451 458.827 336.357 459.641C337.352 460.365 338.889 460.818 340.972 460.999L349.118 461.813L346.402 479.186H334.592ZM388.892 480C379.026 480 371.651 477.828 366.764 473.485C361.877 469.052 359.433 462.673 359.433 454.348C359.433 451.634 359.524 449.146 359.704 446.883C359.976 444.621 360.247 442.45 360.519 440.369C361.696 433.04 363.325 427.068 365.406 422.453C367.487 417.839 370.113 414.31 373.28 411.867C376.447 409.333 380.248 407.614 384.683 406.709C389.208 405.804 394.502 405.352 400.567 405.352C408.531 405.352 414.594 406.347 418.758 408.338C423.011 410.238 425.908 413.179 427.446 417.16C428.984 421.141 429.754 426.163 429.754 432.225C429.754 436.749 429.346 441.681 428.532 447.019C427.174 455.886 424.867 462.718 421.608 467.513C418.442 472.219 414.142 475.476 408.712 477.286C403.373 479.095 396.765 480 388.892 480ZM391.335 461.27C394.322 461.27 396.674 460.818 398.394 459.913C400.115 458.918 401.472 457.153 402.467 454.62C403.553 452.086 404.459 448.422 405.182 443.626C405.545 441.093 405.816 438.831 405.997 436.84C406.268 434.849 406.404 432.995 406.404 431.275C406.404 428.38 405.725 426.389 404.368 425.303C403.01 424.218 400.702 423.675 397.444 423.675C394.458 423.675 392.105 424.218 390.385 425.303C388.665 426.299 387.263 428.244 386.177 431.14C385.182 434.035 384.321 438.197 383.597 443.626C382.963 447.517 382.647 450.729 382.647 453.262C382.647 456.339 383.326 458.465 384.683 459.641C386.132 460.727 388.349 461.27 391.335 461.27ZM379.389 393.544L396.63 374H412.513L422.287 393.544H408.712L402.603 384.315L392.964 393.544H379.389ZM448.916 451.362L453.531 422.725H463.849C467.469 422.725 470.456 422.091 472.808 420.825C475.161 419.558 476.609 417.115 477.152 413.496L477.695 410.374C477.787 409.65 477.831 408.881 477.831 408.067C477.831 405.171 476.745 403.09 474.573 401.823C472.401 400.557 469.279 399.923 465.206 399.923C461.496 399.923 457.831 400.33 454.21 401.145C450.589 401.959 446.879 402.954 443.078 404.131L445.793 386.894C449.503 384.722 453.894 382.867 458.961 381.329C464.029 379.7 469.686 378.886 475.931 378.886C484.619 378.886 491.18 380.967 495.615 385.129C500.05 389.201 502.267 394.539 502.267 401.145C502.267 402.954 502.131 404.764 501.86 406.574L500.502 413.903C499.145 422.498 495.795 429.059 490.456 433.583C485.117 438.016 477.696 440.233 468.193 440.233L466.428 451.362H448.916ZM446.879 479.457C445.07 479.457 444.164 478.643 444.164 477.014V476.471L446.608 461.542C446.879 459.461 448.056 458.42 450.137 458.42H463.713C465.522 458.42 466.428 459.144 466.428 460.592V461.542L463.984 476.471C463.804 477.648 463.397 478.462 462.763 478.914C462.128 479.276 461.36 479.457 460.455 479.457H446.879Z" fill="#FCFCFC"/>
<path d="M334.984 213.994C335.017 235.119 328.329 255.706 315.887 272.776C315.887 272.776 315.887 272.776 315.887 272.776C305.832 286.619 292.393 297.65 276.856 304.813C261.319 311.977 244.204 315.034 227.149 313.692C210.093 312.349 193.667 306.653 179.442 297.146C165.217 287.64 153.669 274.643 145.902 259.397C138.135 244.151 134.41 227.167 135.082 210.07C135.754 192.973 140.802 176.334 149.742 161.746C158.682 147.157 171.215 135.107 186.142 126.747C201.07 118.388 217.893 113.999 235.001 114C237.745 114 240.46 114.11 243.148 114.329C258.637 115.567 273.62 120.423 286.891 128.508C301.577 137.422 313.718 149.972 322.142 164.946C330.566 179.92 334.989 196.813 334.984 213.994Z" fill="#446FC9"/>
<g opacity="0.2">
<path d="M256.593 261.188C255.332 264.539 257.431 264.69 257.571 266.091C257.71 267.493 257.571 270.151 253.511 274.217C249.452 278.282 242.729 277.433 241.327 279.114C239.926 280.795 237.547 287.938 234.186 290.322C230.824 292.707 230.277 291.299 225.503 292.282C220.729 293.265 217.133 299.436 215.704 302.362C214.274 305.288 215.983 310.208 212.621 310.348C209.26 310.487 207.719 303.205 204.642 299.285C201.566 295.365 200.577 291.858 199.617 287.239C198.656 282.621 200.175 272.955 199.617 269.174C199.058 265.393 188.957 258.67 185.306 254.046C181.654 249.422 176.634 240.185 176.93 237.103C177.354 234.113 178.846 231.378 181.129 229.402C182.804 228.14 182.112 227.442 182.391 226.319C182.67 225.197 184.066 224.918 184.351 223.527C184.636 222.136 183.513 217.943 182.117 217.228C180.721 216.513 179.739 218.903 178.896 218.484C178.052 218.065 175.545 215.134 174.557 214.843C173.569 214.553 173.853 216.664 172.457 214.006C171.062 211.347 170.352 204.624 169.236 203.501C168.119 202.379 167.276 205.461 164.612 203.501C161.949 201.541 160.832 197.761 159.71 197.202C158.587 196.644 157.052 197.342 155.902 195.097C154.751 192.852 156.912 188.798 155.902 189.216C154.891 189.635 152.713 192.857 152.149 189.775C151.585 186.692 154.941 176.333 154.383 170.732C153.824 165.131 155.779 159.245 159.699 154.487C159.699 154.487 160.257 151.404 160.815 149.461C161.374 147.518 173.418 139.66 174.819 137.415C175.378 136.483 175.596 135.014 175.808 133.434C192.951 120.788 213.699 113.976 235.001 114C237.745 114 240.46 114.11 243.148 114.33L243.427 114.704C244.639 116.239 245.951 117.222 249.497 118.529C253.042 119.836 253.885 121.517 253.137 122.918C252.389 124.32 251.177 124.594 249.787 124.694C248.397 124.795 247.079 124.035 245.588 124.973C244.097 125.912 242.601 130.949 240.641 131.228C238.681 131.507 235.224 126.76 234.499 125.348C233.773 123.935 236.174 120.958 235.057 119.557C233.94 118.155 231.908 118.44 228.731 118.155C225.553 117.87 218.188 119.093 218.468 120.305C218.747 121.517 229.294 120.115 229.574 122.539C229.853 124.962 221.829 129.072 220.427 128.681C219.026 128.291 217.161 125.889 215.106 125.604C213.051 125.32 211.371 127.001 210.081 127.19C208.791 127.38 207.289 125.789 205.301 126.163C203.313 126.537 202.878 128.218 201.845 128.871C200.812 129.525 198.394 129.525 198.115 131.016C197.836 132.507 201.197 133.356 202.023 134.288C202.85 135.221 200.996 138.393 201.834 139.046C202.671 139.699 207.903 135.137 209.215 134.02C210.527 132.903 211.639 128.05 214.442 128.14C217.245 128.229 218.177 132.993 219.11 133.462C220.042 133.931 222.097 132.345 225.174 132.993C228.25 133.64 230.4 140.37 230.964 142.425C231.528 144.48 232.829 146.535 231.712 147.372C230.596 148.21 225.57 146.814 224.894 145.507C224.219 144.201 228.245 142.235 227.977 141.771C227.709 141.308 225.364 140.654 224.146 141.38C222.929 142.106 222.376 143.614 221.07 144.011C219.763 144.407 216.307 140.465 215.374 141.587C214.442 142.709 216.307 146.256 217.239 147.093C218.172 147.931 221.628 148.4 221.907 149.327C222.186 150.254 219.573 152.315 216.402 152.119C213.23 151.924 210.611 149.506 209.4 150.533C208.188 151.561 208.841 154.264 207.998 155.202C207.155 156.14 202.582 155.481 200.343 157.905C198.104 160.328 197.032 163.997 194.798 166.052C192.565 168.107 191.532 165.494 188.544 168.387C185.557 171.279 185.088 177.724 184.993 179.963C184.898 182.202 184.993 183.978 184.25 183.699C183.508 183.42 182.475 181.465 182.196 180.242C181.916 179.019 182.849 176.975 182.849 176.227C182.849 175.479 178.555 171.653 176.031 171.279C173.507 170.905 171.268 172.955 169.403 174.451C167.538 175.948 164.177 175.669 162.965 176.88C161.753 178.092 160.815 188.831 161.748 191.355C162.68 193.879 163.898 193.874 166.885 192.567C169.872 191.26 168.191 188.736 169.967 189.3C171.743 189.864 172.67 191.729 172.67 193.209C172.67 194.689 169.124 198.235 169.593 199.28C170.062 200.324 173.139 199.09 174.618 199.559C176.098 200.028 176.852 200.96 176.394 204.786C175.936 208.611 176.21 211.604 178.449 212.861C180.688 214.117 181.95 211.04 182.916 211.465C183.882 211.889 185.3 214.123 186.702 213.983C188.103 213.844 187.4 212.582 190.052 211.749C192.704 210.917 191.727 210.348 192.285 208.667C192.844 206.986 194.519 205.584 196.345 206.433C198.171 207.282 196.903 208.533 197.043 209.935C197.182 211.336 200.393 211.476 202.928 212.314C205.463 213.151 206.837 212.314 211.862 213.989C216.887 215.664 217.183 220.69 219.283 221.55C221.382 222.41 228.384 220.992 233.426 224.633C238.469 228.274 237.067 234.997 239.569 236.958C242.07 238.918 251.473 241.576 255.114 242.279C258.754 242.983 259.313 240.459 262.255 241.163C265.198 241.866 266.873 242.704 267.839 246.747C268.794 250.338 257.85 257.826 256.593 261.188Z" fill="#0FFB0A"/>
<path opacity="0.2" d="M181.347 189.579C181.442 190.372 183.776 190.696 186.573 192.288C189.371 193.879 190.404 198.542 191.895 198.431C193.385 198.319 192.922 196.197 193.486 195.638C194.05 195.08 194.977 193.863 193.486 192.651C191.995 191.439 190.538 188.82 187.807 188.446C185.077 188.072 184.613 186.955 183.402 187.05C183.09 187.052 182.783 187.123 182.502 187.258C182.221 187.392 181.974 187.588 181.777 187.83C181.581 188.071 181.44 188.354 181.366 188.656C181.292 188.959 181.285 189.274 181.347 189.579V189.579Z" fill="#312E38"/>
<path opacity="0.2" d="M196.752 197.42C196.333 198.565 196.752 199.386 199.74 200.129C202.727 200.871 205.524 199.386 204.592 198.777C203.659 198.168 202.258 198.448 202.822 197.42C203.386 196.393 203.19 194.902 200.761 195.186C198.332 195.471 197.126 196.398 196.752 197.42Z" fill="#312E38"/>
<path opacity="0.2" d="M207.205 197.738C206.189 197.889 205.619 199.665 206.647 200.782C207.674 201.899 207.674 201.714 208.88 200.782C210.086 199.849 211.963 199.386 211.494 198.453C211.024 197.521 208.233 197.593 207.205 197.738Z" fill="#312E38"/>
<path opacity="0.2" d="M215.33 201.558C215.787 200.156 218.121 201.558 219.154 203.027C220.187 204.495 219.713 206.668 219.154 208.254C218.596 209.84 218.222 211.705 216.921 210.962C215.62 210.219 217.016 207.974 216.826 206.668C216.636 205.361 214.955 202.703 215.33 201.558Z" fill="#312E38"/>
<path opacity="0.2" d="M255.566 123.667C255.075 124.84 257.336 125.253 258.643 126.001C259.949 126.749 260.977 127.213 261.725 126.001C262.473 124.789 261.446 123.382 260.418 123.103C259.391 122.824 256.029 122.544 255.566 123.667Z" fill="#312E38"/>
<path opacity="0.2" d="M273.205 134.59C274.07 135.494 275.539 135.332 276.555 136.645C277.572 137.957 277.209 140.191 278.515 140.844C279.822 141.498 280.749 140.844 280.849 139.912C280.95 138.979 278.984 136.645 279.174 136.176C279.364 135.707 281.882 136.829 282.446 138.231C283.01 139.632 281.888 141.581 283.189 141.961C284.49 142.341 284.216 140.654 284.78 140.286C285.344 139.917 286.55 140.096 286.455 138.973C286.36 137.851 284.864 135.427 283.663 134.59C282.463 133.752 281.514 132.814 279.464 132.356C277.415 131.898 275.45 132.267 274.439 133.104C273.428 133.942 272.675 134.026 273.205 134.59Z" fill="#312E38"/>
<path opacity="0.2" d="M313.598 152.186C313.54 152.564 313.355 152.911 313.073 153.169C311.108 154.565 308.774 149.712 306.071 148.78C303.368 147.847 302.162 144.39 301.604 145.139C301.046 145.887 301.23 146.915 300.392 148.126C299.555 149.338 298.338 149.059 297.779 151.393C297.221 153.728 300.392 158.022 299.644 159.424C298.896 160.825 297.969 160.356 296.467 160.267C294.965 160.178 295.255 161.479 293.301 160.915C291.347 160.351 293.016 157.927 289.951 155.034C286.885 152.142 285.841 151.583 286.5 150.271C287.159 148.958 286.221 147.099 287.617 146.92C289.013 146.741 290.141 148.785 291.073 149.344C292.006 149.902 293.217 148.227 293.307 146.73C293.396 145.234 290.04 143.184 288.84 142.023C287.639 140.861 287.488 136.639 287.957 135.813C288.426 134.986 289.828 135.254 290.191 133.199C290.409 131.993 288.516 129.977 286.885 128.52C297.131 134.751 306.178 142.766 313.598 152.186V152.186Z" fill="#312E38"/>
<path d="M327.541 235.891C327.82 232.903 326.323 232.713 327.82 227.207C329.316 221.701 326.234 215.815 325.112 214.603C323.989 213.391 321.566 213.76 319.606 214.977C317.646 216.195 319.048 217.122 317.735 217.591C316.423 218.06 315.122 217.306 313.911 217.401C312.699 217.496 311.577 220.578 308.963 220.483C306.35 220.388 304.669 216.653 302.71 213.994C300.75 211.336 296.729 209.655 295.451 206.383C294.172 203.11 296.662 198.079 296.104 194.248C295.546 190.417 293.022 191.26 292.553 189.116C292.084 186.971 292.927 187.999 293.58 185.938C294.233 183.878 292.832 182.766 294.139 179.237C295.445 175.708 297.779 173.915 297.215 172.329C296.651 170.743 294.881 168.13 294.786 166.264C294.691 164.399 296.562 164.489 300.108 161.87C303.653 159.25 304.575 159.446 307.299 160.378C309.243 161.096 311.241 161.656 313.274 162.054C314.86 162.333 317.01 166.443 317.663 166.253C318.316 166.063 318.411 164.857 318.69 163.081C318.869 162.31 319.273 161.61 319.852 161.071C330.388 177.971 335.641 197.631 334.938 217.535C334.234 237.438 327.607 256.679 315.904 272.793C325.408 258.24 327.256 238.873 327.541 235.891Z" fill="#0FFB0A"/>
</g>
<path opacity="0.1" d="M312.459 277.221C301.793 290.295 287.993 300.456 272.343 306.76C256.694 313.063 239.704 315.304 222.955 313.274C206.207 311.243 190.245 305.007 176.554 295.146C162.864 285.286 151.891 272.121 144.658 256.878C137.424 241.634 134.164 224.808 135.182 207.966C136.2 191.124 141.463 174.813 150.48 160.552C159.498 146.291 171.976 134.545 186.754 126.405C201.533 118.266 218.13 113.998 235.001 114C237.745 114 240.462 114.11 243.153 114.33C243.896 114.386 244.639 114.453 245.387 114.537C231.253 116.071 217.671 120.875 205.714 128.566C193.757 136.258 183.754 146.627 176.497 158.853C169.239 171.079 164.926 184.826 163.898 199.007C162.871 213.188 165.157 227.414 170.576 240.559C175.996 253.703 184.399 265.406 195.122 274.742C205.845 284.077 218.593 290.789 232.358 294.346C246.123 297.902 260.526 298.207 274.428 295.235C288.331 292.263 301.351 286.096 312.459 277.221V277.221Z" fill="#312E38"/>
<path opacity="0.3" d="M334.984 213.994C335.019 235.119 328.331 255.706 315.887 272.776C315.887 272.776 315.887 272.776 315.887 272.776C306.509 285.672 294.196 296.15 279.967 303.345C292.355 296.251 303.101 286.615 311.499 275.071C323.27 258.864 329.937 239.512 330.644 219.493C331.352 199.474 326.067 179.699 315.469 162.702C313.543 159.609 311.448 156.627 309.192 153.767C301.738 144.289 292.648 136.223 282.351 129.949C269 121.825 253.93 116.948 238.351 115.709C235.654 115.491 232.913 115.379 230.16 115.379C222.022 115.374 213.913 116.353 206.01 118.294C215.41 115.446 225.179 113.999 235.001 114C237.745 114 240.462 114.11 243.153 114.329C268.179 116.369 291.52 127.755 308.535 146.221C325.55 164.688 334.992 188.883 334.984 213.994V213.994Z" fill="white"/>
<path d="M324.955 241.006C324.81 239.56 323.839 238.125 322.069 238.125C320.298 238.125 319.327 239.56 319.182 241.006C318.958 243.24 320.466 245.256 322.069 247.099C323.671 245.267 325.179 243.234 324.955 241.006ZM322.069 242.609C321.756 242.609 321.45 242.516 321.191 242.342C320.931 242.169 320.728 241.922 320.609 241.633C320.489 241.344 320.458 241.027 320.519 240.72C320.58 240.414 320.73 240.132 320.951 239.911C321.172 239.69 321.454 239.539 321.76 239.478C322.067 239.417 322.385 239.449 322.673 239.568C322.962 239.688 323.209 239.89 323.382 240.15C323.556 240.41 323.649 240.716 323.649 241.028C323.647 241.447 323.48 241.848 323.184 242.144C322.888 242.44 322.487 242.607 322.069 242.609V242.609Z" fill="#ECBE2D"/>
<path d="M233.07 273.593C232.825 271.088 231.099 268.597 228.068 268.597C225.036 268.597 223.318 271.088 223.072 273.593C222.69 277.456 225.296 280.95 228.068 284.141C230.854 280.936 233.453 277.441 233.07 273.593ZM228.068 276.365C227.527 276.364 226.999 276.202 226.55 275.901C226.101 275.599 225.751 275.171 225.545 274.671C225.339 274.171 225.286 273.621 225.392 273.091C225.499 272.561 225.76 272.074 226.143 271.692C226.526 271.31 227.013 271.05 227.544 270.945C228.074 270.84 228.624 270.895 229.123 271.102C229.623 271.309 230.05 271.66 230.35 272.11C230.65 272.56 230.811 273.088 230.811 273.629C230.807 274.354 230.516 275.047 230.002 275.557C229.488 276.068 228.792 276.353 228.068 276.351V276.365Z" fill="#F28C2E"/>
<path d="M311.231 168.64C310.985 166.142 309.26 163.651 306.228 163.651C303.196 163.651 301.478 166.142 301.233 168.64C300.85 172.502 303.456 176.004 306.228 179.195C309.015 176.033 311.628 172.502 311.231 168.64ZM306.228 171.419C305.685 171.419 305.155 171.258 304.703 170.956C304.252 170.655 303.901 170.226 303.693 169.724C303.486 169.222 303.432 168.67 303.538 168.138C303.645 167.605 303.907 167.117 304.291 166.733C304.675 166.35 305.165 166.089 305.698 165.984C306.23 165.879 306.782 165.934 307.283 166.143C307.784 166.352 308.212 166.705 308.513 167.157C308.813 167.609 308.973 168.14 308.971 168.683C308.971 169.043 308.9 169.399 308.762 169.732C308.624 170.064 308.422 170.366 308.167 170.62C307.913 170.875 307.61 171.076 307.277 171.213C306.945 171.35 306.588 171.42 306.228 171.419V171.419Z" fill="#F28C2E"/>
<path d="M256.213 248.58C256.011 246.568 254.66 244.563 252.197 244.563C249.735 244.563 248.376 246.568 248.182 248.58C247.871 251.687 249.96 254.491 252.197 257.055C254.427 254.491 256.524 251.679 256.213 248.58ZM252.197 250.809C251.76 250.811 251.333 250.682 250.969 250.441C250.605 250.199 250.321 249.854 250.153 249.451C249.985 249.047 249.941 248.603 250.026 248.174C250.111 247.746 250.321 247.352 250.63 247.043C250.939 246.734 251.333 246.524 251.761 246.439C252.19 246.354 252.634 246.398 253.037 246.566C253.441 246.734 253.785 247.018 254.027 247.382C254.269 247.746 254.397 248.174 254.395 248.611C254.393 249.193 254.161 249.751 253.749 250.163C253.338 250.575 252.78 250.807 252.197 250.809Z" fill="#ECBE2D"/>
<path d="M196.011 219.976C195.809 217.963 194.458 215.965 191.996 215.965C189.535 215.965 188.184 217.963 187.982 219.976C187.671 223.085 189.768 225.891 191.996 228.457C194.225 225.891 196.321 223.078 196.011 219.976ZM191.996 222.238C191.562 222.237 191.138 222.106 190.778 221.864C190.417 221.621 190.137 221.277 189.972 220.875C189.807 220.473 189.764 220.031 189.85 219.604C189.935 219.178 190.145 218.787 190.453 218.48C190.761 218.173 191.152 217.965 191.578 217.88C192.004 217.796 192.446 217.84 192.847 218.007C193.248 218.174 193.591 218.456 193.832 218.817C194.073 219.179 194.202 219.604 194.202 220.038C194.203 220.328 194.146 220.615 194.036 220.883C193.925 221.151 193.763 221.394 193.557 221.599C193.352 221.803 193.109 221.965 192.841 222.075C192.573 222.185 192.286 222.24 191.996 222.238V222.238Z" fill="#ECBE2D"/>
<path d="M160.927 163.836C160.725 161.823 159.374 159.825 156.913 159.825C154.451 159.825 153.1 161.823 152.898 163.836C152.588 166.945 154.684 169.751 156.913 172.316C159.141 169.751 161.238 166.938 160.927 163.836ZM156.913 166.059C156.478 166.059 156.053 165.93 155.692 165.688C155.33 165.447 155.049 165.103 154.882 164.701C154.716 164.299 154.673 163.857 154.757 163.43C154.842 163.004 155.051 162.612 155.359 162.304C155.666 161.996 156.058 161.787 156.484 161.702C156.91 161.617 157.352 161.661 157.754 161.827C158.155 161.994 158.498 162.276 158.74 162.637C158.981 162.999 159.11 163.424 159.11 163.859C159.11 164.148 159.053 164.434 158.943 164.701C158.832 164.968 158.67 165.211 158.466 165.415C158.262 165.619 158.02 165.781 157.754 165.892C157.487 166.002 157.201 166.059 156.913 166.059Z" fill="#F28C2E"/>
<path d="M203.766 137.873C203.465 134.809 201.349 131.755 197.631 131.755C193.913 131.755 191.806 134.809 191.505 137.873C191.036 142.609 194.232 146.894 197.631 150.808C201.04 146.894 204.235 142.609 203.766 137.873ZM197.631 141.281C196.966 141.281 196.316 141.084 195.762 140.714C195.209 140.345 194.778 139.819 194.523 139.204C194.269 138.59 194.202 137.913 194.332 137.261C194.462 136.608 194.782 136.008 195.253 135.538C195.723 135.067 196.323 134.747 196.975 134.617C197.628 134.487 198.304 134.554 198.919 134.809C199.533 135.063 200.059 135.495 200.428 136.048C200.798 136.601 200.995 137.251 200.995 137.917C200.995 138.359 200.908 138.796 200.739 139.204C200.57 139.613 200.322 139.983 200.01 140.296C199.698 140.608 199.327 140.856 198.919 141.025C198.511 141.194 198.073 141.281 197.631 141.281V141.281Z" fill="#ECBE2D"/>
<path opacity="0.3" d="M56.7772 142.556L58.7132 145.909L45.0507 153.797L33.6907 134.121L47.1037 126.377L49.0397 129.73L39.4511 135.266L42.1871 140.005L50.4732 135.221L52.2652 138.325L43.9791 143.109L46.9391 148.236L56.7772 142.556ZM66.7889 141.616C65.551 142.33 64.2513 142.81 62.8896 143.054C61.528 143.298 60.2113 143.258 58.9398 142.933L58.878 139.754C60.1517 139.954 61.3002 139.981 62.3236 139.834C63.3469 139.686 64.2559 139.383 65.0503 138.924C65.7708 138.508 66.2689 138.048 66.5445 137.545C66.8386 137.03 66.8363 136.514 66.5376 135.997C66.2283 135.461 65.7524 135.255 65.1099 135.38C64.4568 135.486 63.5646 135.668 62.4332 135.928C61.1696 136.214 60.0762 136.389 59.153 136.454C58.2298 136.519 57.4395 136.409 56.782 136.123C56.143 135.827 55.5941 135.282 55.1354 134.487C54.3141 133.065 54.1939 131.619 54.7748 130.151C55.3557 128.682 56.5329 127.436 58.3066 126.412C59.3412 125.815 60.4164 125.416 61.5321 125.215C62.6372 124.996 63.7765 125.028 64.95 125.311L64.8135 128.53C62.7509 128.243 61.0545 128.484 59.7243 129.252C59.1331 129.593 58.6705 130.008 58.3366 130.496C58.0212 130.974 58.0235 131.49 58.3435 132.044C58.6422 132.561 59.068 132.808 59.6209 132.785C60.1923 132.75 60.9961 132.606 62.0323 132.353C63.3804 132.043 64.5477 131.825 65.5341 131.698C66.539 131.562 67.394 131.635 68.0991 131.917C68.8227 132.189 69.4405 132.769 69.9525 133.655C70.7845 135.097 70.9087 136.527 70.3249 137.948C69.7412 139.369 68.5625 140.592 66.7889 141.616ZM81.8962 132.894C80.3258 133.8 78.7652 134.233 77.2144 134.192C75.6637 134.152 74.2435 133.74 72.954 132.957C71.6645 132.174 70.6358 131.118 69.8678 129.788C69.0891 128.439 68.674 127.016 68.6223 125.518C68.5891 124.01 68.9479 122.584 69.6987 121.239C70.4495 119.894 71.6101 118.768 73.1805 117.861C74.7694 116.944 76.3154 116.507 77.8186 116.551C79.3402 116.584 80.6982 116.994 81.8925 117.783L78.9021 120.987C77.6154 120.252 76.307 120.269 74.9768 121.037C74.2563 121.453 73.7163 122.011 73.3569 122.711C72.9868 123.393 72.8275 124.162 72.879 125.019C72.9198 125.858 73.1908 126.711 73.6922 127.58C74.1828 128.429 74.7864 129.091 75.503 129.564C76.2273 130.008 76.9879 130.259 77.7846 130.316C78.5707 130.355 79.3147 130.172 80.0168 129.766C80.6819 129.382 81.2009 128.873 81.5739 128.239C81.9546 127.576 82.1118 126.931 82.0455 126.304L86.3159 125.317C86.4464 126.695 86.1377 128.08 85.3897 129.472C84.6496 130.836 83.4851 131.976 81.8962 132.894ZM97.3481 123.972C95.7592 124.89 94.1947 125.337 92.6546 125.315C91.1223 125.264 89.7206 124.841 88.4496 124.048C87.1786 123.254 86.1591 122.192 85.3911 120.862C84.6124 119.514 84.1972 118.09 84.1456 116.593C84.1124 115.085 84.462 113.664 85.1943 112.329C85.9344 110.966 87.0897 109.831 88.6601 108.924C90.2305 108.018 91.7818 107.59 93.3141 107.641C94.8543 107.664 96.2598 108.072 97.5309 108.865C98.8019 109.658 99.8267 110.73 100.605 112.078C101.373 113.408 101.783 114.822 101.835 116.32C101.887 117.817 101.542 119.248 100.802 120.611C100.07 121.945 98.9185 123.066 97.3481 123.972ZM89.2154 118.654C89.7061 119.504 90.3097 120.166 91.0263 120.639C91.7321 121.093 92.4781 121.34 93.2642 121.379C94.0502 121.418 94.8035 121.229 95.5241 120.813C96.2261 120.408 96.7569 119.855 97.1163 119.155C97.465 118.436 97.619 117.658 97.5782 116.819C97.5452 115.951 97.2834 115.092 96.7927 114.243C96.3127 113.411 95.7105 112.773 94.9862 112.329C94.2696 111.856 93.5183 111.6 92.7323 111.562C91.9355 111.504 91.1861 111.678 90.4841 112.084C89.7635 112.5 89.2289 113.067 88.8802 113.786C88.5208 114.486 88.3668 115.264 88.4183 116.121C88.459 116.96 88.7248 117.804 89.2154 118.654ZM95.5802 97.6498L99.2937 95.5058L108.286 111.08C108.68 111.764 109.053 112.153 109.402 112.246C109.752 112.34 110.121 112.275 110.509 112.051C110.804 111.88 111.088 111.667 111.359 111.412C111.631 111.157 111.854 110.904 112.031 110.655L114.161 113.194C113.801 113.722 113.326 114.243 112.736 114.756C112.145 115.269 111.582 115.681 111.046 115.99C109.882 116.662 108.801 116.88 107.802 116.643C106.812 116.378 105.985 115.672 105.324 114.527L95.5802 97.6498ZM129.58 104.994L125.866 107.138L121.162 98.9904C120.511 97.8635 119.804 97.1508 119.041 96.8526C118.296 96.5437 117.545 96.6079 116.787 97.0452C116.325 97.3119 115.92 97.7185 115.57 98.2652C115.239 98.8012 115.004 99.4174 114.864 100.114C114.732 100.781 114.744 101.464 114.901 102.162L119.797 110.642L116.083 112.786L104.403 92.5557L108.117 90.4117L112.965 98.8086C112.967 97.5755 113.281 96.4337 113.906 95.383C114.531 94.3324 115.389 93.4924 116.479 92.8631C117.717 92.1484 118.828 91.8762 119.813 92.0465C120.799 92.2167 121.662 92.6667 122.403 93.3964C123.145 94.126 123.793 94.9712 124.348 95.9319L129.58 104.994ZM129.331 99.4103C128.787 98.468 128.571 97.4966 128.683 96.4958C128.803 95.466 129.222 94.485 129.94 93.5531C130.658 92.6211 131.627 91.8031 132.846 91.0991C133.456 90.7471 134.107 90.4452 134.799 90.1934C135.481 89.9231 136.106 89.747 136.674 89.6651L136.226 88.8891C135.693 87.9653 135.005 87.4141 134.163 87.2352C133.339 87.0457 132.391 87.2603 131.32 87.879C130.525 88.3376 129.848 88.9135 129.287 89.6067C128.727 90.2998 128.204 91.1436 127.719 92.138L125.119 90.3873C125.717 89.2045 126.424 88.168 127.241 87.2779C128.076 86.3772 129.047 85.6068 130.156 84.9668C132.225 83.7722 134.131 83.3615 135.874 83.7347C137.635 84.0974 139.07 85.2394 140.18 87.1608L142.852 91.7888C143.086 92.1953 143.316 92.4443 143.542 92.5359C143.756 92.6091 144.041 92.5681 144.394 92.4131L146.138 95.4338C145.849 95.6997 145.57 95.9218 145.304 96.1003C145.067 96.2866 144.856 96.4331 144.671 96.5398C143.932 96.9664 143.272 97.1255 142.692 97.0169C142.112 96.9084 141.647 96.6352 141.295 96.1976L140.78 95.4973C140.614 96.702 140.187 97.7981 139.501 98.7855C138.823 99.7438 137.994 100.506 137.015 101.071C136.035 101.636 135.055 101.944 134.074 101.993C133.081 102.024 132.166 101.825 131.328 101.398C130.498 100.941 129.832 100.279 129.331 99.4103ZM138.797 94.9425C139.003 94.2324 138.989 93.6742 138.754 93.2677L137.906 91.799C136.721 91.9656 135.639 92.3317 134.66 92.897C133.681 93.4623 133.009 94.1334 132.645 94.9104C132.27 95.6688 132.28 96.3899 132.674 97.0734C132.994 97.6277 133.504 97.9985 134.204 98.1859C134.903 98.3733 135.668 98.227 136.5 97.747C137.054 97.427 137.531 97.0161 137.931 96.5142C138.35 96.0016 138.638 95.4777 138.797 94.9425ZM152.105 84.7468L146.857 75.657L150.57 73.513L155.354 81.7991C156.645 84.0346 158.094 84.6884 159.701 83.7604C160.422 83.3444 160.992 82.7319 161.412 81.923C161.839 81.0849 162.01 80.0998 161.923 78.9677L156.723 69.961L160.436 67.817L166.42 78.1816C166.655 78.588 166.885 78.8371 167.11 78.9287C167.325 79.0018 167.609 78.9609 167.963 78.8058L169.707 81.8265C169.38 82.1137 169.093 82.3413 168.845 82.5091C168.615 82.6662 168.399 82.8035 168.196 82.9208C167.53 83.3048 166.9 83.4717 166.304 83.4214C165.717 83.342 165.231 83.0557 164.848 82.5626L164.093 81.4467C164.022 82.8177 163.623 84.0459 162.895 85.1314C162.167 86.2169 161.193 87.1116 159.973 87.8156C158.477 88.6796 157.063 88.8553 155.733 88.3426C154.391 87.8114 153.182 86.6128 152.105 84.7468ZM195.069 67.1839L191.355 69.3279L186.651 61.1803C185.99 60.0349 185.301 59.3116 184.585 59.0105C183.877 58.6802 183.172 58.7177 182.47 59.1231C181.731 59.5497 181.204 60.2361 180.888 61.1822C180.561 62.1098 180.521 63.1062 180.766 64.1715L185.646 72.6239L181.933 74.7679L177.229 66.6203C176.557 65.4564 175.863 64.7239 175.147 64.4227C174.45 64.111 173.75 64.1577 173.048 64.5631C172.328 64.9791 171.795 65.6562 171.45 66.5945C171.123 67.522 171.082 68.5185 171.328 69.5838L176.224 78.0639L172.51 80.2079L164.126 65.6864L167.48 63.7504L169.032 66.4385C169.023 65.1869 169.337 64.0451 169.973 63.0129C170.617 61.9516 171.539 61.0743 172.74 60.381C173.941 59.6876 175.044 59.4446 176.051 59.6518C177.076 59.8483 177.931 60.3274 178.617 61.0891C178.614 59.7608 178.925 58.5713 179.55 57.5206C180.164 56.4515 181.044 55.5863 182.19 54.925C183.095 54.4023 183.921 54.1472 184.667 54.1598C185.421 54.1432 186.115 54.3214 186.749 54.6943C187.373 55.0487 187.937 55.5358 188.443 56.1553C188.967 56.7643 189.431 57.4197 189.837 58.1218L195.069 67.1839ZM218.455 53.6815L214.742 55.8255L210.038 47.6779C209.366 46.514 208.672 45.7815 207.956 45.4804C207.24 45.1793 206.522 45.2367 205.802 45.6527C205.303 45.9407 204.87 46.3634 204.502 46.9207C204.152 47.4673 203.907 48.0889 203.768 48.7855C203.617 49.4635 203.62 50.1515 203.777 50.8494L208.673 59.3295L204.959 61.4735L196.575 46.952L199.929 45.016L201.481 47.7041C201.494 46.4895 201.859 45.3302 202.576 44.2263C203.283 43.1038 204.274 42.1746 205.549 41.4386C206.454 40.9159 207.289 40.6555 208.054 40.6574C208.808 40.6408 209.502 40.819 210.136 41.1919C210.759 41.5464 211.324 42.0334 211.829 42.653C212.353 43.2619 212.818 43.9174 213.223 44.6194L218.455 53.6815ZM221.684 51.8173L213.3 37.2957L217.014 35.1517L225.398 49.6733L221.684 51.8173ZM215.401 33.8293L212.601 34.4847L212.194 30.3229L215.658 28.3229L215.401 33.8293ZM232.655 45.4831L218.923 34.0496L222.775 31.8256L232.865 40.8542L230.119 27.5856L233.638 25.5536L236.702 43.1471L232.655 45.4831ZM250.392 35.6126C248.821 36.5193 247.266 36.9615 245.726 36.9393C244.204 36.9063 242.804 36.5077 241.525 35.7434C240.236 34.9606 239.207 33.9041 238.439 32.5739C237.65 31.2067 237.229 29.7744 237.177 28.277C237.134 26.7503 237.487 25.3146 238.238 23.9697C238.978 22.6063 240.142 21.4659 241.731 20.5486C243.32 19.6312 244.881 19.1983 246.413 19.2497C247.935 19.2826 249.322 19.7011 250.574 20.5052C251.835 21.2802 252.844 22.3236 253.601 23.6353C253.878 24.1157 254.091 24.5474 254.238 24.9304L243.014 31.4104C243.757 32.4841 244.685 33.1309 245.797 33.3508C246.928 33.5601 247.983 33.3821 248.962 32.8168C249.701 32.3901 250.293 31.8146 250.737 31.0902C251.188 30.3367 251.364 29.595 251.263 28.8652L254.962 27.912C255.066 29.3298 254.735 30.7404 253.968 32.1436C253.191 33.5283 251.999 34.6846 250.392 35.6126ZM241.571 29.1028L249.164 24.7188C248.424 23.6928 247.502 23.0552 246.397 22.8061C245.301 22.5278 244.244 22.6821 243.228 23.2687C242.23 23.8447 241.569 24.6825 241.243 25.7821C240.925 26.8525 241.034 27.9594 241.571 29.1028ZM248.38 9.43103L252.093 7.28703L261.085 22.8616C261.48 23.5452 261.852 23.9339 262.202 24.0276C262.551 24.1213 262.92 24.0561 263.308 23.8321C263.604 23.6614 263.887 23.4485 264.159 23.1933C264.43 22.938 264.654 22.6857 264.83 22.4361L266.961 24.9748C266.601 25.503 266.125 26.0238 265.535 26.5371C264.945 27.0504 264.381 27.4618 263.846 27.7711C262.682 28.4431 261.6 28.6609 260.602 28.4246C259.611 28.1591 258.785 27.4536 258.124 26.3081L248.38 9.43103Z" fill="#FCFCFC"/>
<path opacity="0.3" d="M122.735 323.28L128.879 340.752L134.959 323.28H139.599L130.991 346H126.735L118.095 323.28H122.735ZM141.608 326.896V322.64H145.896V326.896H141.608ZM141.608 346V329.232H145.896V346H141.608ZM148.613 341.04C148.613 339.952 148.911 339.003 149.509 338.192C150.127 337.36 150.981 336.72 152.069 336.272C153.157 335.824 154.405 335.6 155.812 335.6C156.517 335.6 157.231 335.664 157.957 335.792C158.682 335.899 159.311 336.059 159.845 336.272V335.376C159.845 334.309 159.525 333.488 158.885 332.912C158.266 332.336 157.338 332.048 156.101 332.048C155.183 332.048 154.309 332.208 153.477 332.528C152.645 332.848 151.77 333.317 150.853 333.936L149.477 331.12C150.586 330.395 151.717 329.851 152.869 329.488C154.042 329.125 155.269 328.944 156.549 328.944C158.938 328.944 160.794 329.541 162.117 330.736C163.461 331.931 164.133 333.637 164.133 335.856V341.2C164.133 341.669 164.207 342 164.357 342.192C164.506 342.363 164.773 342.469 165.157 342.512V346C164.773 346.085 164.421 346.139 164.101 346.16C163.802 346.203 163.546 346.224 163.333 346.224C162.479 346.224 161.829 346.032 161.381 345.648C160.933 345.264 160.666 344.795 160.581 344.24L160.485 343.376C159.738 344.336 158.821 345.072 157.733 345.584C156.666 346.075 155.567 346.32 154.437 346.32C153.306 346.32 152.303 346.096 151.429 345.648C150.554 345.179 149.861 344.549 149.349 343.76C148.858 342.949 148.613 342.043 148.613 341.04ZM159.045 341.904C159.578 341.392 159.845 340.901 159.845 340.432V338.736C158.735 338.288 157.615 338.064 156.485 338.064C155.354 338.064 154.437 338.309 153.733 338.8C153.029 339.269 152.677 339.899 152.677 340.688C152.677 341.328 152.933 341.904 153.445 342.416C153.957 342.928 154.693 343.184 155.653 343.184C156.293 343.184 156.911 343.067 157.509 342.832C158.127 342.597 158.639 342.288 159.045 341.904ZM168.299 326.896V322.64H172.588V326.896H168.299ZM166.764 352.272C165.974 352.272 165.217 352.144 164.491 351.888C163.745 351.653 163.083 351.28 162.507 350.768L164.363 347.856C164.619 348.091 164.918 348.261 165.259 348.368C165.579 348.496 165.91 348.56 166.252 348.56C166.806 348.56 167.286 348.357 167.692 347.952C168.097 347.568 168.299 347.067 168.299 346.448V329.232H172.588V346.128C172.588 347.344 172.332 348.411 171.82 349.328C171.308 350.245 170.604 350.96 169.708 351.472C168.833 352.005 167.852 352.272 166.764 352.272ZM184.259 346.32C182.446 346.32 180.878 345.925 179.555 345.136C178.254 344.347 177.241 343.301 176.515 342C175.79 340.677 175.427 339.248 175.427 337.712C175.427 336.133 175.779 334.683 176.483 333.36C177.209 332.016 178.233 330.949 179.555 330.16C180.878 329.349 182.457 328.944 184.291 328.944C186.126 328.944 187.694 329.349 188.995 330.16C190.297 330.949 191.289 332.005 191.971 333.328C192.675 334.629 193.027 336.037 193.027 337.552C193.027 338.107 192.995 338.587 192.931 338.992H179.971C180.078 340.293 180.558 341.317 181.411 342.064C182.286 342.811 183.289 343.184 184.419 343.184C185.273 343.184 186.073 342.981 186.819 342.576C187.587 342.149 188.11 341.595 188.387 340.912L192.067 341.936C191.449 343.216 190.457 344.272 189.091 345.104C187.726 345.915 186.115 346.32 184.259 346.32ZM179.875 336.272H188.643C188.515 335.013 188.035 334 187.203 333.232C186.393 332.443 185.401 332.048 184.227 332.048C183.075 332.048 182.083 332.443 181.251 333.232C180.441 334 179.982 335.013 179.875 336.272ZM213.375 346.32C212.052 346.32 210.9 346.021 209.919 345.424C208.938 344.827 208.17 344.037 207.615 343.056V352.816H203.327V329.232H207.071V332.112C207.69 331.131 208.49 330.363 209.471 329.808C210.474 329.232 211.604 328.944 212.863 328.944C214.378 328.944 215.722 329.339 216.895 330.128C218.068 330.896 218.996 331.941 219.679 333.264C220.362 334.565 220.703 336.005 220.703 337.584C220.703 339.227 220.383 340.709 219.743 342.032C219.124 343.333 218.26 344.379 217.151 345.168C216.063 345.936 214.804 346.32 213.375 346.32ZM211.935 342.672C212.81 342.672 213.567 342.437 214.207 341.968C214.868 341.477 215.38 340.848 215.743 340.08C216.127 339.291 216.319 338.459 216.319 337.584C216.319 336.645 216.116 335.803 215.711 335.056C215.306 334.288 214.751 333.691 214.047 333.264C213.364 332.816 212.575 332.592 211.679 332.592C210.868 332.592 210.058 332.859 209.247 333.392C208.436 333.925 207.892 334.597 207.615 335.408V339.344C207.999 340.283 208.586 341.072 209.375 341.712C210.164 342.352 211.018 342.672 211.935 342.672ZM231.384 346.32C229.571 346.32 228.003 345.925 226.68 345.136C225.379 344.347 224.366 343.301 223.64 342C222.915 340.677 222.552 339.248 222.552 337.712C222.552 336.133 222.904 334.683 223.608 333.36C224.334 332.016 225.358 330.949 226.68 330.16C228.003 329.349 229.582 328.944 231.416 328.944C233.251 328.944 234.819 329.349 236.12 330.16C237.422 330.949 238.414 332.005 239.096 333.328C239.8 334.629 240.152 336.037 240.152 337.552C240.152 338.107 240.12 338.587 240.056 338.992H227.096C227.203 340.293 227.683 341.317 228.536 342.064C229.411 342.811 230.414 343.184 231.544 343.184C232.398 343.184 233.198 342.981 233.944 342.576C234.712 342.149 235.235 341.595 235.512 340.912L239.192 341.936C238.574 343.216 237.582 344.272 236.216 345.104C234.851 345.915 233.24 346.32 231.384 346.32ZM227 336.272H235.768C235.64 335.013 235.16 334 234.328 333.232C233.518 332.443 232.526 332.048 231.352 332.048C230.2 332.048 229.208 332.443 228.376 333.232C227.566 334 227.107 335.013 227 336.272ZM242.733 322.64H247.021V340.624C247.021 341.413 247.149 341.936 247.405 342.192C247.661 342.448 248.013 342.576 248.461 342.576C248.802 342.576 249.154 342.533 249.517 342.448C249.879 342.363 250.199 342.256 250.477 342.128L251.053 345.392C250.477 345.669 249.805 345.883 249.036 346.032C248.269 346.181 247.575 346.256 246.957 346.256C245.613 346.256 244.567 345.904 243.821 345.2C243.095 344.475 242.733 343.451 242.733 342.128V322.64ZM260.665 346.32C258.83 346.32 257.251 345.925 255.929 345.136C254.627 344.325 253.625 343.259 252.921 341.936C252.217 340.613 251.865 339.184 251.865 337.648C251.865 336.091 252.217 334.651 252.921 333.328C253.646 332.005 254.659 330.949 255.961 330.16C257.283 329.349 258.851 328.944 260.665 328.944C262.478 328.944 264.035 329.349 265.337 330.16C266.659 330.949 267.673 332.005 268.377 333.328C269.081 334.651 269.433 336.091 269.433 337.648C269.433 339.184 269.081 340.613 268.377 341.936C267.673 343.259 266.659 344.325 265.337 345.136C264.035 345.925 262.478 346.32 260.665 346.32ZM256.281 337.648C256.281 338.629 256.473 339.504 256.857 340.272C257.241 341.019 257.763 341.605 258.425 342.032C259.086 342.459 259.833 342.672 260.665 342.672C261.475 342.672 262.211 342.459 262.873 342.032C263.534 341.584 264.057 340.987 264.441 340.24C264.846 339.472 265.049 338.597 265.049 337.616C265.049 336.656 264.846 335.803 264.441 335.056C264.057 334.288 263.534 333.691 262.873 333.264C262.211 332.816 261.475 332.592 260.665 332.592C259.833 332.592 259.086 332.816 258.425 333.264C257.763 333.691 257.241 334.288 256.857 335.056C256.473 335.803 256.281 336.667 256.281 337.648ZM306.063 346H301.775V336.592C301.775 335.269 301.54 334.299 301.071 333.68C300.623 333.04 299.993 332.72 299.183 332.72C298.329 332.72 297.529 333.051 296.783 333.712C296.036 334.352 295.503 335.195 295.183 336.24V346H290.895V336.592C290.895 335.248 290.66 334.267 290.191 333.648C289.743 333.029 289.113 332.72 288.303 332.72C287.471 332.72 286.671 333.04 285.903 333.68C285.156 334.32 284.623 335.163 284.303 336.208V346H280.015V329.232H283.887V332.336C284.505 331.248 285.348 330.416 286.415 329.84C287.503 329.243 288.74 328.944 290.127 328.944C291.513 328.944 292.591 329.285 293.359 329.968C294.148 330.651 294.649 331.493 294.863 332.496C295.524 331.344 296.388 330.469 297.455 329.872C298.521 329.253 299.716 328.944 301.039 328.944C302.084 328.944 302.927 329.136 303.567 329.52C304.228 329.883 304.74 330.384 305.103 331.024C305.465 331.643 305.711 332.347 305.839 333.136C305.988 333.925 306.063 334.725 306.063 335.536V346ZM309.636 339.728V329.232H313.924V338.8C313.924 341.381 314.852 342.672 316.708 342.672C317.54 342.672 318.34 342.427 319.108 341.936C319.897 341.424 320.537 340.656 321.028 339.632V329.232H325.316V341.2C325.316 341.669 325.39 342 325.54 342.192C325.689 342.363 325.956 342.469 326.34 342.512V346C325.913 346.085 325.55 346.139 325.252 346.16C324.974 346.181 324.718 346.192 324.484 346.192C323.716 346.192 323.086 346.021 322.596 345.68C322.126 345.317 321.849 344.827 321.764 344.208L321.668 342.864C320.921 344.016 319.961 344.88 318.788 345.456C317.614 346.032 316.324 346.32 314.916 346.32C313.188 346.32 311.876 345.765 310.98 344.656C310.084 343.525 309.636 341.883 309.636 339.728ZM345.161 346H340.873V336.592C340.873 335.248 340.638 334.267 340.169 333.648C339.7 333.029 339.049 332.72 338.217 332.72C337.641 332.72 337.054 332.869 336.457 333.168C335.881 333.467 335.358 333.883 334.889 334.416C334.42 334.928 334.078 335.525 333.865 336.208V346H329.577V329.232H333.449V332.336C334.068 331.291 334.964 330.469 336.137 329.872C337.31 329.253 338.633 328.944 340.105 328.944C341.15 328.944 342.004 329.136 342.665 329.52C343.326 329.883 343.838 330.384 344.201 331.024C344.564 331.643 344.809 332.347 344.937 333.136C345.086 333.925 345.161 334.725 345.161 335.536V346ZM347.866 337.616C347.866 336.016 348.186 334.555 348.826 333.232C349.466 331.909 350.351 330.864 351.482 330.096C352.612 329.328 353.903 328.944 355.354 328.944C356.591 328.944 357.7 329.253 358.682 329.872C359.684 330.469 360.463 331.237 361.018 332.176V322.64H365.306V341.2C365.306 341.669 365.38 342 365.53 342.192C365.679 342.363 365.935 342.469 366.298 342.512V346C365.53 346.149 364.922 346.224 364.474 346.224C363.706 346.224 363.066 346.032 362.554 345.648C362.063 345.264 361.786 344.763 361.722 344.144L361.658 343.088C361.039 344.133 360.196 344.933 359.13 345.488C358.084 346.043 356.986 346.32 355.834 346.32C354.276 346.32 352.9 345.936 351.706 345.168C350.511 344.379 349.572 343.333 348.89 342.032C348.207 340.709 347.866 339.237 347.866 337.616ZM361.018 339.856V335.856C360.676 334.917 360.09 334.139 359.258 333.52C358.426 332.901 357.572 332.592 356.698 332.592C355.823 332.592 355.055 332.837 354.394 333.328C353.732 333.797 353.22 334.427 352.858 335.216C352.495 335.984 352.314 336.816 352.314 337.712C352.314 338.629 352.516 339.472 352.922 340.24C353.327 340.987 353.871 341.584 354.554 342.032C355.258 342.459 356.058 342.672 356.954 342.672C357.764 342.672 358.564 342.405 359.354 341.872C360.164 341.339 360.719 340.667 361.018 339.856ZM377.259 346.32C375.424 346.32 373.845 345.925 372.523 345.136C371.221 344.325 370.219 343.259 369.515 341.936C368.811 340.613 368.459 339.184 368.459 337.648C368.459 336.091 368.811 334.651 369.515 333.328C370.24 332.005 371.253 330.949 372.555 330.16C373.877 329.349 375.445 328.944 377.259 328.944C379.072 328.944 380.629 329.349 381.931 330.16C383.253 330.949 384.267 332.005 384.971 333.328C385.675 334.651 386.027 336.091 386.027 337.648C386.027 339.184 385.675 340.613 384.971 341.936C384.267 343.259 383.253 344.325 381.931 345.136C380.629 345.925 379.072 346.32 377.259 346.32ZM372.875 337.648C372.875 338.629 373.067 339.504 373.451 340.272C373.835 341.019 374.357 341.605 375.019 342.032C375.68 342.459 376.427 342.672 377.259 342.672C378.069 342.672 378.805 342.459 379.467 342.032C380.128 341.584 380.651 340.987 381.035 340.24C381.44 339.472 381.643 338.597 381.643 337.616C381.643 336.656 381.44 335.803 381.035 335.056C380.651 334.288 380.128 333.691 379.467 333.264C378.805 332.816 378.069 332.592 377.259 332.592C376.427 332.592 375.68 332.816 375.019 333.264C374.357 333.691 373.835 334.288 373.451 335.056C373.067 335.803 372.875 336.667 372.875 337.648Z" fill="#FCFCFC"/>
<path opacity="0.3" d="M369.548 142.152H362.284V161H357.9V142.152H350.636V138.28H369.548V142.152ZM381.564 161.16C379.9 161.16 378.385 160.84 377.02 160.2C375.676 159.56 374.513 158.696 373.532 157.608C372.572 156.499 371.825 155.261 371.292 153.896C370.759 152.509 370.492 151.091 370.492 149.64C370.492 148.125 370.769 146.685 371.324 145.32C371.879 143.933 372.657 142.707 373.66 141.64C374.663 140.552 375.836 139.699 377.18 139.08C378.545 138.44 380.039 138.12 381.66 138.12C383.303 138.12 384.796 138.451 386.14 139.112C387.505 139.773 388.668 140.659 389.628 141.768C390.609 142.877 391.356 144.125 391.868 145.512C392.401 146.877 392.668 148.275 392.668 149.704C392.668 151.197 392.391 152.637 391.836 154.024C391.281 155.389 390.503 156.616 389.5 157.704C388.519 158.771 387.345 159.613 385.98 160.232C384.636 160.851 383.164 161.16 381.564 161.16ZM374.972 149.64C374.972 150.963 375.228 152.2 375.74 153.352C376.273 154.504 377.031 155.443 378.012 156.168C379.015 156.893 380.209 157.256 381.596 157.256C383.025 157.256 384.231 156.883 385.212 156.136C386.193 155.389 386.94 154.429 387.452 153.256C387.964 152.083 388.22 150.877 388.22 149.64C388.22 148.317 387.953 147.08 387.42 145.928C386.887 144.776 386.119 143.848 385.116 143.144C384.135 142.419 382.961 142.056 381.596 142.056C380.167 142.056 378.961 142.429 377.98 143.176C376.999 143.923 376.252 144.883 375.74 146.056C375.228 147.208 374.972 148.403 374.972 149.64ZM396.056 161V138.28H405.688C406.733 138.28 407.693 138.493 408.568 138.92C409.464 139.347 410.232 139.923 410.872 140.648C411.512 141.373 412.013 142.184 412.376 143.08C412.738 143.976 412.92 144.893 412.92 145.832C412.92 147.112 412.621 148.328 412.024 149.48C411.426 150.632 410.594 151.571 409.528 152.296C408.482 153.021 407.256 153.384 405.848 153.384H400.472V161H396.056ZM400.472 149.512H405.592C406.402 149.512 407.074 149.181 407.608 148.52C408.162 147.837 408.44 146.941 408.44 145.832C408.44 144.659 408.13 143.752 407.512 143.112C406.893 142.472 406.189 142.152 405.4 142.152H400.472V149.512ZM428.822 165.768C427.179 165.768 425.696 165.416 424.374 164.712C423.051 164.008 422.048 163.048 421.366 161.832L423.83 159.272C424.427 160.104 425.174 160.765 426.07 161.256C426.966 161.747 427.894 161.992 428.854 161.992C430.006 161.992 430.944 161.64 431.67 160.936C432.416 160.232 432.79 159.315 432.79 158.184C432.79 157.075 432.438 156.179 431.734 155.496C431.03 154.813 430.155 154.472 429.11 154.472C428.406 154.472 427.744 154.632 427.126 154.952C426.528 155.251 426.048 155.688 425.686 156.264H421.942L424.566 142.728H435.766V146.632H427.67L426.742 151.72C426.998 151.464 427.371 151.251 427.862 151.08C428.374 150.888 428.992 150.792 429.718 150.792C431.147 150.792 432.416 151.101 433.526 151.72C434.656 152.339 435.542 153.203 436.182 154.312C436.843 155.4 437.174 156.659 437.174 158.088C437.174 159.624 436.811 160.968 436.086 162.12C435.36 163.272 434.368 164.168 433.11 164.808C431.851 165.448 430.422 165.768 428.822 165.768ZM456.236 151.624C456.236 153.501 455.874 155.176 455.148 156.648C454.444 158.099 453.463 159.24 452.204 160.072C450.967 160.904 449.559 161.32 447.98 161.32C446.402 161.32 444.983 160.904 443.724 160.072C442.487 159.24 441.506 158.099 440.78 156.648C440.076 155.176 439.724 153.501 439.724 151.624C439.724 149.747 440.076 148.083 440.78 146.632C441.506 145.16 442.487 144.008 443.724 143.176C444.983 142.323 446.402 141.896 447.98 141.896C449.559 141.896 450.967 142.323 452.204 143.176C453.463 144.008 454.444 145.16 455.148 146.632C455.874 148.083 456.236 149.747 456.236 151.624ZM451.916 151.624C451.916 149.917 451.543 148.531 450.796 147.464C450.071 146.376 449.132 145.832 447.98 145.832C446.786 145.832 445.826 146.376 445.1 147.464C444.375 148.531 444.012 149.917 444.012 151.624C444.012 153.331 444.375 154.717 445.1 155.784C445.826 156.851 446.786 157.384 447.98 157.384C449.132 157.384 450.071 156.851 450.796 155.784C451.543 154.717 451.916 153.331 451.916 151.624Z" fill="#FCFCFC"/>
</svg>
