<svg width="271" height="58" viewBox="0 0 271 58" fill="none" xmlns="http://www.w3.org/2000/svg">
<path d="M19.404 57.438C16.5813 57.438 14.002 57.1947 11.666 56.708C9.33 56.2213 7.31033 55.3697 5.607 54.153C3.95233 52.8877 2.66267 51.1113 1.738 48.824C0.813334 46.5367 0.351 43.568 0.351 39.918C0.351 38.2633 0.448334 36.414 0.643 34.37C0.837667 32.326 1.10533 30.282 1.446 28.238C2.22467 23.2253 3.29533 19.0643 4.658 15.755C6.06933 12.4457 7.82133 9.81766 9.914 7.871C12.0553 5.87566 14.6103 4.46433 17.579 3.637C20.5963 2.80967 24.1247 2.396 28.164 2.396C30.8893 2.396 33.42 2.66366 35.756 3.199C38.092 3.68566 40.1117 4.586 41.815 5.9C43.567 7.16533 44.9053 9.01467 45.83 11.448C46.8033 13.8327 47.29 16.9473 47.29 20.792C47.29 22.3007 47.1927 24.077 46.998 26.121C46.8033 28.165 46.5357 30.2333 46.195 32.326C45.3677 37.4847 44.2483 41.7187 42.837 45.028C41.4743 48.2887 39.7223 50.8193 37.581 52.62C35.4883 54.4207 32.9333 55.686 29.916 56.416C26.9473 57.0973 23.4433 57.438 19.404 57.438ZM21.375 46.05C24.003 46.05 26.0957 45.539 27.653 44.517C29.259 43.4463 30.5 41.7673 31.376 39.48C32.3007 37.1927 33.055 34.2483 33.639 30.647C33.931 28.749 34.1743 26.924 34.369 25.172C34.5637 23.42 34.661 22.0087 34.661 20.938C34.661 17.9693 34.004 16.0227 32.69 15.098C31.376 14.1733 29.2833 13.711 26.412 13.711C23.93 13.711 21.886 14.1733 20.28 15.098C18.674 15.974 17.3843 17.58 16.411 19.916C15.4863 22.252 14.6833 25.5613 14.002 29.844C13.6613 31.6933 13.3937 33.4697 13.199 35.173C13.0043 36.8277 12.907 38.1903 12.907 39.261C12.907 41.9377 13.564 43.7383 14.878 44.663C16.192 45.5877 18.3577 46.05 21.375 46.05ZM47.3025 57L53.4345 17.726H63.9465L65.4795 21.595C67.0369 20.3783 68.8862 19.3563 71.0275 18.529C73.2175 17.7017 75.6509 17.288 78.3276 17.288C81.4909 17.288 83.9242 18.091 85.6275 19.697C87.3309 21.303 88.1825 23.3957 88.1825 25.975C88.1825 26.851 88.1339 27.873 88.0366 29.041C87.9879 30.1603 87.7445 31.9853 87.3065 34.516L83.8025 57H71.1735L74.6775 34.954C74.7749 34.1267 74.8479 33.494 74.8965 33.056C74.9452 32.5693 74.9696 32.2043 74.9696 31.961C74.9696 30.8903 74.6775 30.063 74.0935 29.479C73.5095 28.895 72.4875 28.603 71.0275 28.603C69.6649 28.603 68.3752 28.8707 67.1585 29.406C65.9905 29.9413 64.9199 30.647 63.9465 31.523L59.8585 57H47.3025ZM105.535 57.438C102.518 57.438 99.9139 56.9757 97.7239 56.051C95.5825 55.1263 93.9279 53.569 92.7599 51.379C91.5919 49.1403 91.0079 46.123 91.0079 42.327C91.0079 41.451 91.0565 40.4047 91.1539 39.188C91.2999 37.9713 91.4702 36.6817 91.6649 35.319C92.3462 30.8903 93.5385 27.362 95.2419 24.734C96.9452 22.106 99.0379 20.208 101.52 19.04C104.051 17.872 106.873 17.288 109.988 17.288C112.178 17.288 114.441 17.5313 116.777 18.018C119.113 18.456 121.4 18.9913 123.639 19.624L122.398 26.851H112.908C110.037 26.851 107.968 27.7757 106.703 29.625C105.438 31.4257 104.513 34.005 103.929 37.363C103.783 38.3363 103.686 39.1393 103.637 39.772C103.588 40.356 103.564 40.794 103.564 41.086C103.564 43.5193 104.075 45.2713 105.097 46.342C106.119 47.4127 107.628 47.948 109.623 47.948H119.697L118.529 55.102C116.874 55.7833 115.001 56.343 112.908 56.781C110.864 57.219 108.406 57.438 105.535 57.438ZM139.82 57.438C134.515 57.438 130.549 56.27 127.921 53.934C125.293 51.5493 123.979 48.1183 123.979 43.641C123.979 42.181 124.027 40.8427 124.125 39.626C124.271 38.4093 124.417 37.2413 124.563 36.122C125.195 32.18 126.071 28.968 127.191 26.486C128.31 24.004 129.721 22.106 131.425 20.792C133.128 19.4293 135.172 18.5047 137.557 18.018C139.99 17.5313 142.837 17.288 146.098 17.288C150.38 17.288 153.641 17.8233 155.88 18.894C158.167 19.916 159.724 21.4977 160.552 23.639C161.379 25.7803 161.793 28.4813 161.793 31.742C161.793 34.1753 161.574 36.8277 161.136 39.699C160.406 44.4683 159.165 48.1427 157.413 50.722C155.709 53.2527 153.398 55.0047 150.478 55.978C147.606 56.9513 144.054 57.438 139.82 57.438ZM141.134 47.364C142.74 47.364 144.005 47.1207 144.93 46.634C145.854 46.0987 146.584 45.1497 147.12 43.787C147.704 42.4243 148.19 40.4533 148.58 37.874C148.774 36.5113 148.92 35.2947 149.018 34.224C149.164 33.1533 149.237 32.1557 149.237 31.231C149.237 29.6737 148.872 28.603 148.142 28.019C147.412 27.435 146.171 27.143 144.419 27.143C142.813 27.143 141.547 27.435 140.623 28.019C139.698 28.5543 138.944 29.6007 138.36 31.158C137.824 32.7153 137.362 34.954 136.973 37.874C136.632 39.9667 136.462 41.6943 136.462 43.057C136.462 44.7117 136.827 45.8553 137.557 46.488C138.335 47.072 139.528 47.364 141.134 47.364ZM180.273 57C176.136 57 173.021 56.27 170.929 54.81C168.836 53.35 167.79 51.0383 167.79 47.875C167.79 47.0477 167.838 46.05 167.936 44.882C168.033 43.714 168.203 42.4 168.447 40.94L170.929 27.727H164.87L166.184 19.697L172.973 17.726L176.331 6.703H186.332L184.58 17.726H193.121L191.588 27.727H183.047L180.93 40.94C180.832 41.3293 180.735 41.8647 180.638 42.546C180.54 43.2273 180.492 43.8113 180.492 44.298C180.492 45.32 180.735 46.05 181.222 46.488C181.757 46.8773 182.584 47.1207 183.704 47.218L188.084 47.656L186.624 57H180.273ZM209.472 57.438C204.167 57.438 200.201 56.27 197.573 53.934C194.945 51.5493 193.631 48.1183 193.631 43.641C193.631 42.181 193.68 40.8427 193.777 39.626C193.923 38.4093 194.069 37.2413 194.215 36.122C194.848 32.18 195.724 28.968 196.843 26.486C197.962 24.004 199.374 22.106 201.077 20.792C202.78 19.4293 204.824 18.5047 207.209 18.018C209.642 17.5313 212.489 17.288 215.75 17.288C220.033 17.288 223.293 17.8233 225.532 18.894C227.819 19.916 229.377 21.4977 230.204 23.639C231.031 25.7803 231.445 28.4813 231.445 31.742C231.445 34.1753 231.226 36.8277 230.788 39.699C230.058 44.4683 228.817 48.1427 227.065 50.722C225.362 53.2527 223.05 55.0047 220.13 55.978C217.259 56.9513 213.706 57.438 209.472 57.438ZM210.786 47.364C212.392 47.364 213.657 47.1207 214.582 46.634C215.507 46.0987 216.237 45.1497 216.772 43.787C217.356 42.4243 217.843 40.4533 218.232 37.874C218.427 36.5113 218.573 35.2947 218.67 34.224C218.816 33.1533 218.889 32.1557 218.889 31.231C218.889 29.6737 218.524 28.603 217.794 28.019C217.064 27.435 215.823 27.143 214.071 27.143C212.465 27.143 211.2 27.435 210.275 28.019C209.35 28.5543 208.596 29.6007 208.012 31.158C207.477 32.7153 207.014 34.954 206.625 37.874C206.284 39.9667 206.114 41.6943 206.114 43.057C206.114 44.7117 206.479 45.8553 207.209 46.488C207.988 47.072 209.18 47.364 210.786 47.364ZM204.362 10.937L213.633 0.424997H222.174L227.43 10.937H220.13L216.845 5.973L211.662 10.937H204.362ZM241.749 42.035L244.231 26.632H249.779C251.726 26.632 253.332 26.2913 254.597 25.61C255.862 24.9287 256.641 23.6147 256.933 21.668L257.225 19.989C257.274 19.5997 257.298 19.186 257.298 18.748C257.298 17.1907 256.714 16.0713 255.546 15.39C254.378 14.7087 252.699 14.368 250.509 14.368C248.514 14.368 246.543 14.587 244.596 15.025C242.649 15.463 240.654 15.9983 238.61 16.631L240.07 7.36C242.065 6.192 244.426 5.19433 247.151 4.367C249.876 3.491 252.918 3.053 256.276 3.053C260.948 3.053 264.476 4.17233 266.861 6.411C269.246 8.601 270.438 11.4723 270.438 15.025C270.438 15.9983 270.365 16.9717 270.219 17.945L269.489 21.887C268.759 26.5103 266.958 30.0387 264.087 32.472C261.216 34.8567 257.225 36.049 252.115 36.049L251.166 42.035H241.749ZM240.654 57.146C239.681 57.146 239.194 56.708 239.194 55.832V55.54L240.508 47.51C240.654 46.3907 241.287 45.831 242.406 45.831H249.706C250.679 45.831 251.166 46.2203 251.166 46.999V47.51L249.852 55.54C249.755 56.1727 249.536 56.6107 249.195 56.854C248.854 57.0487 248.441 57.146 247.954 57.146H240.654Z" fill="#312E38"/>
</svg>
