<svg width="36" height="35" viewBox="0 0 36 35" fill="none" xmlns="http://www.w3.org/2000/svg">
<path d="M35.0012 17.499C35.0071 21.1958 33.8366 24.7985 31.659 27.7858C31.659 27.7858 31.659 27.7858 31.659 27.7858C29.899 30.2083 27.5469 32.1387 24.8277 33.3924C22.1084 34.646 19.113 35.181 16.1279 34.9461C13.1428 34.7111 10.2679 33.7142 7.77824 32.0506C5.28857 30.3871 3.26739 28.1125 1.90806 25.4445C0.548726 22.7765 -0.103293 19.8043 0.0143739 16.8123C0.132041 13.8203 1.01546 10.9085 2.58012 8.35553C4.14478 5.80253 6.33834 3.6937 8.95097 2.23078C11.5636 0.767859 14.5079 -0.000220312 17.5022 1.5313e-05C17.9824 1.5313e-05 18.4577 0.0192346 18.9281 0.0576739C21.6391 0.274228 24.2614 1.12412 26.584 2.53897C29.1544 4.09895 31.2793 6.29513 32.7537 8.91558C34.2281 11.536 35.0022 14.4923 35.0012 17.499Z" fill="#446FC9"/>
<g opacity="0.2">
<path d="M21.2813 25.7579C21.0605 26.3443 21.4279 26.3707 21.4524 26.616C21.4768 26.8613 21.4524 27.3265 20.7419 28.0379C20.0314 28.7494 18.8548 28.6008 18.6095 28.895C18.3642 29.1891 17.9479 30.4391 17.3596 30.8564C16.7712 31.2737 16.6755 31.0274 15.8399 31.1994C15.0043 31.3714 14.375 32.4513 14.1248 32.9634C13.8746 33.4755 14.1737 34.3364 13.5853 34.3609C12.997 34.3853 12.7273 33.1109 12.1888 32.4249C11.6503 31.7388 11.4774 31.1251 11.3093 30.3169C11.1412 29.5087 11.407 27.8171 11.3093 27.1554C11.2115 26.4938 9.44366 25.3172 8.80453 24.508C8.16539 23.6988 7.28682 22.0824 7.33862 21.543C7.4129 21.0198 7.67393 20.5411 8.07353 20.1953C8.36671 19.9745 8.24553 19.8523 8.29439 19.6559C8.34325 19.4594 8.58757 19.4106 8.63741 19.1672C8.68725 18.9239 8.49082 18.19 8.2465 18.0649C8.00219 17.9398 7.83019 18.358 7.68262 18.2848C7.53505 18.2115 7.09626 17.6984 6.92328 17.6476C6.7503 17.5968 6.80014 17.9662 6.55583 17.501C6.31151 17.0358 6.18739 15.8592 5.99194 15.6627C5.79649 15.4663 5.64892 16.0058 5.18276 15.6627C4.7166 15.3197 4.52115 14.6581 4.32472 14.5604C4.12828 14.4626 3.85953 14.5848 3.65822 14.1919C3.4569 13.7991 3.8351 13.0896 3.65822 13.1629C3.48133 13.2362 3.1002 13.8001 3.00149 13.2606C2.90279 12.7211 3.49013 10.9083 3.3924 9.92811C3.29467 8.9479 3.63672 7.91786 4.32276 7.08523C4.32276 7.08523 4.42049 6.54577 4.51822 6.20568C4.61594 5.86559 6.72392 4.49057 6.96921 4.09771C7.06694 3.9345 7.10505 3.67748 7.14219 3.40091C10.1426 1.18789 13.7739 -0.00415905 17.5022 1.09031e-05C17.9824 1.09031e-05 18.4577 0.0192302 18.9281 0.0576695L18.9769 0.123147C19.189 0.391896 19.4187 0.563896 20.0392 0.792578C20.6598 1.02126 20.8074 1.31542 20.6764 1.56071C20.5455 1.80601 20.3334 1.85389 20.0901 1.87148C19.8467 1.88907 19.6161 1.75617 19.3551 1.92035C19.0942 2.08453 18.8323 2.96603 18.4893 3.01489C18.1463 3.06376 17.5413 2.23307 17.4143 1.98583C17.2872 1.73858 17.7075 1.21769 17.512 0.972395C17.3166 0.7271 16.9608 0.776941 16.4048 0.7271C15.8487 0.677259 14.5597 0.891282 14.6085 1.10335C14.6574 1.31542 16.5035 1.07012 16.5523 1.49426C16.6012 1.91839 15.1969 2.63767 14.9516 2.56926C14.7063 2.50085 14.3799 2.08062 14.0202 2.03078C13.6606 1.98094 13.3664 2.2751 13.1407 2.30832C12.9149 2.34155 12.652 2.06303 12.3041 2.12851C11.9562 2.19398 11.88 2.48814 11.6992 2.60248C11.5184 2.71682 11.0952 2.71682 11.0464 2.97776C10.9975 3.23869 11.5858 3.38723 11.7305 3.55044C11.8751 3.71364 11.5507 4.26873 11.6972 4.38307C11.8438 4.49741 12.7595 3.69898 12.9892 3.50353C13.2189 3.30807 13.4133 2.45882 13.9039 2.47446C14.3945 2.4901 14.5577 3.32371 14.7209 3.4058C14.8841 3.48789 15.2438 3.21035 15.7822 3.32371C16.3207 3.43707 16.697 4.61468 16.7957 4.97432C16.8944 5.33396 17.1221 5.69359 16.9266 5.84018C16.7312 5.98677 15.8516 5.74245 15.7334 5.51377C15.6151 5.28509 16.3197 4.94109 16.2728 4.85998C16.2259 4.77887 15.8155 4.66453 15.6024 4.79157C15.3894 4.91862 15.2926 5.18248 15.0639 5.25187C14.8353 5.32125 14.2303 4.6313 14.0671 4.82773C13.9039 5.02416 14.2303 5.64473 14.3935 5.79132C14.5567 5.93791 15.1617 6.02 15.2105 6.18223C15.2594 6.34445 14.802 6.70507 14.2469 6.67086C13.6919 6.63666 13.2335 6.2135 13.0214 6.39332C12.8094 6.57314 12.9237 7.04613 12.7762 7.21032C12.6286 7.3745 11.8282 7.25918 11.4363 7.68332C11.0444 8.10745 10.8568 8.74952 10.4659 9.10915C10.075 9.46879 9.89418 9.01143 9.37134 9.51765C8.8485 10.0239 8.76641 11.1516 8.7498 11.5435C8.73319 11.9354 8.7498 12.2462 8.61982 12.1973C8.48984 12.1485 8.30905 11.8064 8.26019 11.5924C8.21132 11.3784 8.37453 11.0207 8.37453 10.8897C8.37453 10.7588 7.62301 10.0894 7.18128 10.0239C6.73955 9.9584 6.34767 10.3171 6.02126 10.579C5.69485 10.8409 5.10653 10.792 4.89446 11.0041C4.6824 11.2161 4.51821 13.0954 4.68142 13.5372C4.84462 13.9789 5.05767 13.9779 5.58051 13.7492C6.10335 13.5206 5.80919 13.0788 6.11996 13.1775C6.43073 13.2762 6.59296 13.6026 6.59296 13.8616C6.59296 14.1206 5.97239 14.7412 6.05449 14.9239C6.13658 15.1067 6.67505 14.8907 6.93403 14.9728C7.19301 15.0549 7.32494 15.2181 7.2448 15.8875C7.16466 16.5569 7.21255 17.0808 7.60444 17.3006C7.99632 17.5205 8.21719 16.982 8.38625 17.0563C8.55532 17.1306 8.80355 17.5215 9.04884 17.4971C9.29414 17.4726 9.171 17.2518 9.63521 17.1062C10.0994 16.9605 9.92839 16.8609 10.0261 16.5667C10.1238 16.2725 10.417 16.0273 10.7366 16.1758C11.0562 16.3243 10.8343 16.5433 10.8588 16.7885C10.8832 17.0338 11.4451 17.0583 11.8888 17.2049C12.3325 17.3515 12.5729 17.2049 13.4524 17.498C14.332 17.7912 14.3838 18.6708 14.7512 18.8213C15.1187 18.9718 16.3442 18.7235 17.2266 19.3607C18.1091 19.9979 17.8638 21.1745 18.3016 21.5176C18.7395 21.8606 20.3852 22.3258 21.0224 22.4489C21.6595 22.572 21.7573 22.1303 22.2723 22.2534C22.7873 22.3766 23.0805 22.5232 23.2496 23.2307C23.4167 23.8591 21.5012 25.1696 21.2813 25.7579Z" fill="#0FFB0A"/>
<path opacity="0.2" d="M8.11162 13.2264C8.12824 13.3652 8.53674 13.4219 9.02635 13.7004C9.51596 13.9789 9.69676 14.7949 9.95769 14.7754C10.2186 14.7558 10.1375 14.3845 10.2362 14.2867C10.3349 14.189 10.4971 13.976 10.2362 13.7639C9.97528 13.5518 9.72021 13.0935 9.24233 13.028C8.76444 12.9625 8.68333 12.7671 8.47126 12.7837C8.41674 12.7841 8.36297 12.7965 8.31382 12.8201C8.26466 12.8437 8.22134 12.8779 8.18696 12.9202C8.15259 12.9625 8.128 13.0119 8.11498 13.0648C8.10195 13.1178 8.10081 13.173 8.11162 13.2264V13.2264Z" fill="#312E38"/>
<path opacity="0.2" d="M10.8079 14.5985C10.7346 14.7988 10.8079 14.9425 11.3308 15.0725C11.8536 15.2024 12.3432 14.9425 12.18 14.836C12.0168 14.7294 11.7715 14.7783 11.8702 14.5985C11.9689 14.4187 11.9347 14.1577 11.5096 14.2076C11.0845 14.2574 10.8734 14.4196 10.8079 14.5985Z" fill="#312E38"/>
<path opacity="0.2" d="M12.6374 14.6542C12.4595 14.6806 12.3598 14.9913 12.5396 15.1868C12.7195 15.3823 12.7195 15.35 12.9306 15.1868C13.1416 15.0236 13.47 14.9425 13.3879 14.7793C13.3058 14.6161 12.8172 14.6288 12.6374 14.6542Z" fill="#312E38"/>
<path opacity="0.2" d="M14.0593 15.3226C14.1394 15.0773 14.5479 15.3226 14.7287 15.5797C14.9095 15.8367 14.8265 16.2168 14.7287 16.4944C14.631 16.7719 14.5655 17.0983 14.3378 16.9684C14.1101 16.8384 14.3544 16.4455 14.3212 16.2168C14.288 15.9882 13.9938 15.523 14.0593 15.3226Z" fill="#312E38"/>
<path opacity="0.2" d="M21.1015 1.69167C21.0155 1.8969 21.4113 1.96921 21.64 2.10017C21.8687 2.23112 22.0485 2.31224 22.1795 2.10017C22.3104 1.8881 22.1306 1.64183 21.9508 1.59296C21.771 1.5441 21.1826 1.49524 21.1015 1.69167Z" fill="#312E38"/>
<path opacity="0.2" d="M24.1887 3.60321C24.3402 3.76153 24.5972 3.73319 24.7751 3.96285C24.9529 4.1925 24.8894 4.58341 25.1181 4.69775C25.3468 4.81209 25.509 4.69775 25.5266 4.53455C25.5442 4.37134 25.2002 3.96285 25.2334 3.88076C25.2666 3.79866 25.7074 3.9951 25.8061 4.24039C25.9048 4.48569 25.7084 4.82675 25.9361 4.89321C26.1638 4.95966 26.1159 4.66453 26.2146 4.60003C26.3133 4.53553 26.5244 4.5668 26.5078 4.37037C26.4912 4.17394 26.2293 3.7498 26.0191 3.60321C25.809 3.45662 25.6429 3.29244 25.2842 3.2123C24.9256 3.13217 24.5816 3.19667 24.4047 3.34326C24.2278 3.48985 24.0959 3.50451 24.1887 3.60321Z" fill="#312E38"/>
<path opacity="0.2" d="M31.2583 6.68258C31.2482 6.74872 31.2158 6.80941 31.1664 6.85458C30.8224 7.0989 30.4139 6.24965 29.9409 6.08645C29.4679 5.92324 29.2569 5.31831 29.1591 5.44927C29.0614 5.58022 29.0937 5.76004 28.9471 5.97211C28.8005 6.18417 28.5874 6.13531 28.4897 6.54381C28.392 6.95231 28.9471 7.70383 28.8161 7.94913C28.6852 8.19442 28.5229 8.11233 28.26 8.09669C27.9972 8.08106 28.048 8.30876 27.7059 8.21006C27.3639 8.11135 27.6561 7.68722 27.1196 7.18099C26.583 6.67476 26.4003 6.57704 26.5156 6.34738C26.6309 6.11772 26.4667 5.79229 26.7111 5.76102C26.9554 5.72974 27.1528 6.08742 27.316 6.18515C27.4792 6.28288 27.6913 5.9897 27.7069 5.72779C27.7225 5.46588 27.1352 5.10722 26.9251 4.90395C26.715 4.70068 26.6886 3.96186 26.7707 3.81722C26.8528 3.67259 27.0981 3.7195 27.1616 3.35986C27.1997 3.14877 26.8684 2.79598 26.583 2.54091C28.3762 3.63134 29.9596 5.03403 31.2583 6.68258V6.68258Z" fill="#312E38"/>
<path d="M33.6986 21.3309C33.7474 20.8081 33.4855 20.7748 33.7474 19.8113C34.0093 18.8477 33.4699 17.8176 33.2734 17.6056C33.077 17.3935 32.6529 17.458 32.3099 17.671C31.9668 17.8841 32.2121 18.0463 31.9825 18.1284C31.7528 18.2105 31.5251 18.0786 31.313 18.0952C31.101 18.1118 30.9045 18.6512 30.4472 18.6346C29.9898 18.618 29.6957 17.9642 29.3526 17.499C29.0096 17.0339 28.306 16.7397 28.0822 16.167C27.8584 15.5943 28.2942 14.7138 28.1965 14.0434C28.0988 13.373 27.6571 13.5206 27.575 13.1453C27.4929 12.77 27.6405 12.9498 27.7548 12.5892C27.8691 12.2286 27.6238 12.0341 27.8525 11.4165C28.0812 10.7989 28.4897 10.4852 28.391 10.2076C28.2923 9.93007 27.9825 9.4727 27.9659 9.1463C27.9493 8.81989 28.2767 8.83552 28.8972 8.37718C29.5178 7.91884 29.679 7.95305 30.156 8.11625C30.4961 8.24184 30.8458 8.33988 31.2016 8.40943C31.4792 8.4583 31.8554 9.17757 31.9698 9.14434C32.0841 9.11111 32.1007 8.90002 32.1496 8.58925C32.1808 8.45434 32.2516 8.33183 32.3529 8.23743C34.1969 11.1949 35.1163 14.6355 34.9932 18.1186C34.8701 21.6017 33.7102 24.9688 31.6619 27.7887C33.3252 25.242 33.6487 21.8528 33.6986 21.3309Z" fill="#0FFB0A"/>
</g>
<path opacity="0.1" d="M31.0589 28.5638C29.1921 30.8516 26.7768 32.6298 24.0379 33.733C21.2989 34.8361 18.3253 35.2283 15.394 34.8729C12.4627 34.5176 9.66893 33.4263 7.27287 31.7007C4.87681 29.975 2.95635 27.6712 1.69028 25.0036C0.424211 22.336 -0.146289 19.3915 0.0318955 16.4441C0.21008 13.4967 1.13115 10.6423 2.70936 8.14667C4.28757 5.65105 6.47159 3.59533 9.05809 2.17093C11.6446 0.746525 14.5494 -0.000253506 17.5022 0.000122212C17.9824 0.000122212 18.458 0.0193415 18.929 0.0577808C19.059 0.0675536 19.189 0.0792811 19.3199 0.0939401C16.8463 0.362541 14.4691 1.20312 12.3764 2.54916C10.2837 3.8952 8.53303 5.70978 7.26279 7.84931C5.99255 9.98885 5.23765 12.3946 5.05781 14.8763C4.87797 17.358 5.27812 19.8475 6.22661 22.1478C7.1751 24.4481 8.64591 26.4962 10.5226 28.1299C12.3994 29.7636 14.6306 30.9381 17.0396 31.5605C19.4487 32.183 21.9696 32.2362 24.4028 31.7161C26.8361 31.196 29.1149 30.1168 31.0589 28.5638V28.5638Z" fill="#312E38"/>
<path opacity="0.3" d="M35.0012 17.499C35.0075 21.1958 33.8369 24.7986 31.659 27.7858C31.659 27.7858 31.659 27.7858 31.659 27.7858C30.0176 30.0426 27.8626 31.8764 25.3722 33.1354C27.5403 31.894 29.4211 30.2077 30.8908 28.1874C32.9512 25.3513 34.1179 21.9646 34.2417 18.4612C34.3655 14.9579 33.4407 11.4973 31.5857 8.52279C31.2487 7.98168 30.882 7.45966 30.4872 6.95916C29.1826 5.30059 27.5916 3.88897 25.7895 2.7911C23.4528 1.36944 20.8151 0.515889 18.0886 0.29906C17.6166 0.260946 17.1367 0.241401 16.6549 0.241401C15.2306 0.240467 13.8114 0.411755 12.4282 0.751536C14.0734 0.253077 15.7831 -0.000151366 17.5022 1.5341e-05C17.9824 1.5341e-05 18.458 0.0192346 18.929 0.057674C23.309 0.414637 27.3942 2.40707 30.3722 5.63872C33.3502 8.87038 35.0027 13.1045 35.0012 17.499V17.499Z" fill="white"/>
<path d="M33.246 22.2261C33.2206 21.973 33.0506 21.7218 32.7408 21.7218C32.431 21.7218 32.261 21.973 32.2356 22.2261C32.1965 22.617 32.4603 22.9698 32.7408 23.2923C33.0213 22.9717 33.2851 22.616 33.246 22.2261ZM32.7408 22.5066C32.6861 22.5066 32.6326 22.4903 32.5871 22.46C32.5417 22.4296 32.5062 22.3864 32.4853 22.3358C32.4644 22.2853 32.4589 22.2297 32.4695 22.176C32.4802 22.1224 32.5066 22.0731 32.5452 22.0344C32.5839 21.9958 32.6332 21.9694 32.6868 21.9587C32.7405 21.9481 32.7961 21.9535 32.8466 21.9745C32.8972 21.9954 32.9404 22.0309 32.9708 22.0763C33.0011 22.1218 33.0174 22.1753 33.0174 22.23C33.0171 22.3033 32.9879 22.3735 32.9361 22.4253C32.8843 22.4771 32.8141 22.5063 32.7408 22.5066V22.5066Z" fill="#ECBE2D"/>
<path d="M17.1643 27.9288C17.1213 27.4904 16.8194 27.0545 16.2887 27.0545C15.7581 27.0545 15.4574 27.4904 15.4144 27.9288C15.3475 28.6047 15.8036 29.2162 16.2887 29.7747C16.7764 29.2137 17.2313 28.6022 17.1643 27.9288ZM16.2887 28.4139C16.1941 28.4137 16.1016 28.3854 16.023 28.3326C15.9445 28.2799 15.8833 28.205 15.8472 28.1175C15.8112 28.0299 15.8019 27.9337 15.8205 27.8409C15.8391 27.7481 15.8848 27.6629 15.9518 27.5961C16.0189 27.5292 16.1042 27.4837 16.197 27.4654C16.2899 27.447 16.3861 27.4565 16.4735 27.4928C16.561 27.5291 16.6357 27.5905 16.6882 27.6692C16.7408 27.7479 16.7688 27.8404 16.7688 27.9351C16.7682 28.0619 16.7172 28.1832 16.6272 28.2725C16.5372 28.3618 16.4155 28.4117 16.2887 28.4114V28.4139Z" fill="#F28C2E"/>
<path d="M30.844 9.56197C30.8011 9.12482 30.4991 8.68893 29.9684 8.68893C29.4378 8.68893 29.1371 9.12482 29.0942 9.56197C29.0272 10.2379 29.4833 10.8507 29.9684 11.4091C30.4561 10.8557 30.9135 10.2379 30.844 9.56197ZM29.9684 10.0484C29.8734 10.0484 29.7806 10.0202 29.7016 9.96739C29.6226 9.91458 29.5611 9.83952 29.5248 9.75172C29.4885 9.66392 29.479 9.56732 29.4977 9.47415C29.5163 9.38099 29.5621 9.29545 29.6294 9.22835C29.6967 9.16126 29.7823 9.11563 29.8756 9.09725C29.9688 9.07887 30.0653 9.08856 30.1531 9.12509C30.2408 9.16162 30.3157 9.22335 30.3683 9.30247C30.4209 9.38159 30.4488 9.47454 30.4486 9.56955C30.4486 9.63254 30.4361 9.69491 30.412 9.75309C30.3878 9.81126 30.3525 9.86411 30.3079 9.90859C30.2633 9.95307 30.2103 9.98831 30.1521 10.0123C30.0938 10.0363 30.0314 10.0486 29.9684 10.0484V10.0484Z" fill="#F28C2E"/>
<path d="M21.2148 23.5514C21.1794 23.1994 20.9429 22.8486 20.5119 22.8486C20.081 22.8486 19.8431 23.1994 19.8091 23.5514C19.7547 24.0952 20.1204 24.586 20.5119 25.0346C20.9021 24.586 21.2691 24.0939 21.2148 23.5514ZM20.5119 23.9416C20.4355 23.9419 20.3606 23.9194 20.2969 23.8771C20.2332 23.8348 20.1835 23.7745 20.1541 23.7039C20.1248 23.6333 20.117 23.5556 20.1318 23.4805C20.1467 23.4055 20.1835 23.3366 20.2376 23.2825C20.2916 23.2284 20.3606 23.1917 20.4356 23.1768C20.5106 23.1619 20.5883 23.1697 20.6589 23.1991C20.7295 23.2285 20.7898 23.2782 20.8321 23.3419C20.8745 23.4056 20.8969 23.4804 20.8966 23.5569C20.8963 23.6588 20.8556 23.7565 20.7836 23.8285C20.7115 23.9006 20.6139 23.9412 20.5119 23.9416Z" fill="#ECBE2D"/>
<path d="M10.6781 18.5459C10.6428 18.1935 10.4063 17.8439 9.9755 17.8439C9.54469 17.8439 9.30822 18.1935 9.27289 18.5459C9.21853 19.09 9.58546 19.581 9.9755 20.0299C10.3655 19.581 10.7325 19.0886 10.6781 18.5459ZM9.9755 18.9417C9.89949 18.9414 9.82527 18.9186 9.7622 18.8762C9.69913 18.8337 9.65005 18.7735 9.62115 18.7031C9.59225 18.6327 9.58482 18.5554 9.59981 18.4808C9.61481 18.4062 9.65155 18.3378 9.70539 18.2841C9.75923 18.2303 9.82776 18.1938 9.90233 18.1791C9.9769 18.1643 10.0542 18.172 10.1244 18.2012C10.1946 18.2304 10.2545 18.2797 10.2967 18.343C10.3389 18.4063 10.3615 18.4807 10.3615 18.5567C10.3616 18.6075 10.3518 18.6577 10.3324 18.7046C10.3131 18.7515 10.2846 18.794 10.2487 18.8298C10.2128 18.8656 10.1702 18.8939 10.1233 18.9131C10.0764 18.9324 10.0262 18.9421 9.9755 18.9417V18.9417Z" fill="#ECBE2D"/>
<path d="M4.53776 8.72128C4.50243 8.36897 4.26596 8.01938 3.83515 8.01938C3.40434 8.01938 3.16787 8.36897 3.13254 8.72128C3.07818 9.26539 3.44511 9.75645 3.83515 10.2053C4.22519 9.75645 4.59213 9.26403 4.53776 8.72128ZM3.83515 9.11032C3.75909 9.11032 3.68473 9.08774 3.62148 9.04544C3.55823 9.00314 3.50894 8.94302 3.47983 8.87268C3.45072 8.80234 3.4431 8.72493 3.45794 8.65026C3.47278 8.57559 3.50941 8.50699 3.5632 8.45316C3.61699 8.39932 3.68551 8.36266 3.76012 8.3478C3.83473 8.33295 3.91206 8.34057 3.98233 8.36971C4.05261 8.39884 4.11268 8.44818 4.15494 8.51149C4.1972 8.5748 4.21975 8.64922 4.21975 8.72536C4.21975 8.77592 4.20981 8.82597 4.19048 8.87268C4.17115 8.91938 4.14282 8.96182 4.10711 8.99757C4.07139 9.03332 4.029 9.06167 3.98233 9.08102C3.93567 9.10036 3.88566 9.11032 3.83515 9.11032Z" fill="#F28C2E"/>
<path d="M12.0355 4.1777C11.9828 3.64163 11.6125 3.1071 10.9618 3.1071C10.311 3.1071 9.94229 3.64163 9.88961 4.1777C9.8075 5.00661 10.3668 5.7565 10.9618 6.44131C11.5583 5.7565 12.1176 5.00661 12.0355 4.1777ZM10.9618 4.77421C10.8453 4.77421 10.7315 4.73968 10.6347 4.67498C10.5379 4.61029 10.4624 4.51834 10.4178 4.41076C10.3733 4.30318 10.3616 4.1848 10.3843 4.07059C10.407 3.95638 10.4631 3.85148 10.5455 3.76914C10.6278 3.6868 10.7327 3.63073 10.8469 3.60801C10.9611 3.58529 11.0795 3.59695 11.1871 3.64151C11.2947 3.68608 11.3866 3.76154 11.4513 3.85836C11.516 3.95518 11.5505 4.06901 11.5505 4.18545C11.5505 4.26277 11.5353 4.33933 11.5057 4.41076C11.4761 4.48219 11.4327 4.54709 11.3781 4.60176C11.3234 4.65643 11.2585 4.6998 11.1871 4.72939C11.1156 4.75898 11.0391 4.77421 10.9618 4.77421V4.77421Z" fill="#ECBE2D"/>
</svg>
