<svg width="52" height="64" viewBox="0 0 52 64" fill="none" xmlns="http://www.w3.org/2000/svg">
<path d="M25.7977 63.9998V57.9713L40.4362 49.519V55.5508L25.7977 63.9998Z" fill="#37474F"/>
<path d="M25.7978 63.9998L11.1625 55.5508V49.519L25.7978 57.9713V63.9998Z" fill="#263238"/>
<path d="M25.7978 57.9713L11.1625 49.5191L25.7978 41.0669L40.4363 49.5191L25.7978 57.9713Z" fill="#455A64"/>
<path d="M25.7977 56.8257V55.2357L38.6821 47.7974V49.3874L25.7977 56.8257Z" fill="#37474F"/>
<path d="M25.7977 56.8257L12.9166 49.3874V47.7974L25.7977 55.2357V56.8257Z" fill="#263238"/>
<path d="M25.7977 55.2356L12.9166 47.7972L25.7977 40.3589L38.6821 47.7972L25.7977 55.2356Z" fill="#455A64"/>
<path d="M13.2514 31.8196C12.5658 31.8196 11.848 31.7906 11.1142 31.7262C5.49116 31.2177 1.78003 28.6556 0.392784 24.3233C0.0492981 23.2147 -0.0706701 22.0489 0.0398334 20.8936C0.150337 19.7383 0.489113 18.6164 1.03652 17.5931C1.54884 16.5954 2.25648 15.7109 3.11739 14.9921C3.97829 14.2733 4.9749 13.7348 6.04799 13.4088C10.876 11.9765 15.115 13.956 16.3799 18.2175L20.1651 30.957L18.9194 31.2466C17.0552 31.6345 15.1555 31.8265 13.2514 31.8196ZM9.154 15.3207C8.33387 15.3296 7.51948 15.4586 6.73678 15.7037C5.96961 15.9417 5.25834 16.332 4.64556 16.8513C4.03277 17.3706 3.53107 18.0083 3.1705 18.726C2.77089 19.4651 2.52215 20.2762 2.43872 21.1122C2.35528 21.9482 2.43882 22.7924 2.68448 23.5959C4.82811 30.2746 13.7696 29.6148 17.1105 29.1191L14.0753 18.8998C13.5378 17.0813 11.9575 15.3207 9.154 15.3207Z" fill="#ECBE2D"/>
<path d="M32.676 31.2307L31.4336 30.9411L35.2123 18.2048C36.4805 13.9433 40.7291 11.9638 45.5475 13.3961C46.6205 13.7221 47.6172 14.2606 48.4781 14.9794C49.339 15.6982 50.0466 16.5827 50.5589 17.5804C51.1063 18.6037 51.4451 19.7256 51.5556 20.8809C51.6661 22.0362 51.5461 23.202 51.2027 24.3106C49.809 28.6429 46.1011 31.205 40.4781 31.7135C39.7474 31.7779 39.0297 31.8069 38.3441 31.8069C36.4398 31.8121 34.5402 31.6191 32.676 31.2307ZM37.504 18.8904L34.472 29.1096C37.8098 29.6053 46.7512 30.2651 48.8981 23.5864C49.1449 22.7854 49.2304 21.9435 49.1497 21.1093C49.0691 20.275 48.8238 19.4651 48.4282 18.7262C48.0661 18.0106 47.5638 17.3751 46.9511 16.8575C46.3385 16.3399 45.628 15.9509 44.8619 15.7135C44.078 15.4687 43.2626 15.3397 42.4414 15.3305C39.638 15.3209 38.0737 17.0815 37.5201 18.8904H37.504Z" fill="#ECBE2D"/>
<path d="M32.4443 46.8252C32.0449 46.0296 31.4053 45.3799 30.6161 44.968C27.8738 43.3876 23.4256 43.3876 20.6833 44.968C19.8942 45.3799 19.2546 46.0296 18.8551 46.8252H18.6266V47.8358C18.6266 48.8722 19.3122 49.9119 20.6833 50.7037C23.4256 52.2872 27.8738 52.2872 30.6161 50.7037C31.9873 49.9119 32.6729 48.8722 32.6729 47.8358V46.8252H32.4443Z" fill="#ECBE2D"/>
<path opacity="0.3" d="M32.4443 46.8252C32.0449 46.0296 31.4053 45.3799 30.6161 44.968C27.8738 43.3876 23.4256 43.3876 20.6833 44.968C19.8942 45.3799 19.2546 46.0296 18.8551 46.8252H18.6266V47.8358C18.6266 48.8722 19.3122 49.9119 20.6833 50.7037C23.4256 52.2872 27.8738 52.2872 30.6161 50.7037C31.9873 49.9119 32.6729 48.8722 32.6729 47.8358V46.8252H32.4443Z" fill="black"/>
<path d="M30.616 43.8317C30.4873 43.7577 30.3521 43.6901 30.2137 43.6225C29.4798 43.1268 27.7546 41.7846 27.7546 40.0594C27.7546 37.3911 32.6728 34.607 32.6728 34.607L18.5106 34.4976C18.5106 34.4976 23.4674 37.3944 23.4674 40.0594C23.4674 42.2513 20.6768 43.8317 20.6768 43.8317C17.9345 45.4153 17.9345 47.9806 20.6768 49.5642C23.4191 51.1477 27.8673 51.1477 30.6096 49.5642C33.3519 47.9806 33.3583 45.4089 30.616 43.8317Z" fill="#ECBE2D"/>
<path d="M8.73877 9.84912V15.7682C8.73731 19.2036 9.50833 22.5954 10.9948 25.6925C12.4812 28.7897 14.6451 31.5129 17.3262 33.6608L17.3551 33.6898L17.677 33.9344C17.9377 34.1243 18.221 34.311 18.5267 34.4912C20.462 35.5331 22.6127 36.1116 24.8096 36.181C25.4046 36.2132 26.0009 36.2132 26.5959 36.181C28.8876 36.0652 31.1214 35.5019 32.8756 34.4912L33.1717 34.311C33.1717 34.311 33.9249 33.796 34.2242 33.5256C34.2355 33.5132 34.2485 33.5024 34.2628 33.4935C36.9493 31.3448 39.1178 28.6192 40.6077 25.5185C42.0976 22.4178 42.8706 19.0216 42.8695 15.5816V9.84912H8.73877Z" fill="#ECBE2D"/>
<path d="M16.5087 9.84912V15.7682C16.4854 19.8306 17.1068 23.8709 18.3498 27.7385C19.0213 29.836 19.9764 31.8318 21.1886 33.6705L21.2079 33.6994C21.2627 33.7799 21.3174 33.8636 21.3753 33.9441C21.5197 34.1378 21.6745 34.3237 21.8388 34.5009C21.8388 34.5009 24.5328 37.3977 24.5328 40.0628C24.4817 41.4573 23.9456 42.7903 23.0168 43.8318C22.2978 44.6131 21.8986 45.6362 21.8986 46.698C21.8986 47.7599 22.2978 48.7829 23.0168 49.5643C23.36 49.9387 23.7773 50.2377 24.2421 50.4423C24.707 50.6468 25.2094 50.7525 25.7173 50.7525C26.2252 50.7525 26.7276 50.6468 27.1925 50.4423C27.6573 50.2377 28.0746 49.9387 28.4178 49.5643C29.1382 48.7836 29.5383 47.7603 29.5383 46.698C29.5383 45.6358 29.1382 44.6124 28.4178 43.8318C28.347 43.7578 28.2761 43.6902 28.2021 43.6226C27.3742 42.6156 26.9033 41.3626 26.8631 40.0595C26.8631 37.3913 29.5379 34.6071 29.5379 34.6071L29.6505 34.5009L29.8114 34.3207C29.8114 34.3207 30.2202 33.8057 30.3812 33.5353C30.3879 33.5241 30.3954 33.5133 30.4037 33.5031C33.3262 29.2062 35.0836 22.6465 35.0836 15.5912V9.84912H16.5087Z" fill="#ECBE2D"/>
<path opacity="0.1" d="M16.5087 9.84912V15.7682C16.4854 19.8306 17.1068 23.8709 18.3498 27.7385C19.0213 29.836 19.9764 31.8318 21.1886 33.6705L21.2079 33.6994C21.2627 33.7799 21.3174 33.8636 21.3753 33.9441C21.5197 34.1378 21.6745 34.3237 21.8388 34.5009C21.8388 34.5009 24.5328 37.3977 24.5328 40.0628C24.4817 41.4573 23.9456 42.7903 23.0168 43.8318C22.2978 44.6131 21.8986 45.6362 21.8986 46.698C21.8986 47.7599 22.2978 48.7829 23.0168 49.5643C23.36 49.9387 23.7773 50.2377 24.2421 50.4423C24.707 50.6468 25.2094 50.7525 25.7173 50.7525C26.2252 50.7525 26.7276 50.6468 27.1925 50.4423C27.6573 50.2377 28.0746 49.9387 28.4178 49.5643C29.1382 48.7836 29.5383 47.7603 29.5383 46.698C29.5383 45.6358 29.1382 44.6124 28.4178 43.8318C28.347 43.7578 28.2761 43.6902 28.2021 43.6226C27.3742 42.6156 26.9033 41.3626 26.8631 40.0595C26.8631 37.3913 29.5379 34.6071 29.5379 34.6071L29.6505 34.5009L29.8114 34.3207C29.8114 34.3207 30.2202 33.8057 30.3812 33.5353C30.3879 33.5241 30.3954 33.5133 30.4037 33.5031C33.3262 29.2062 35.0836 22.6465 35.0836 15.5912V9.84912H16.5087Z" fill="white"/>
<path d="M25.7978 19.6982C35.2209 19.6982 42.8599 15.2886 42.8599 9.84913C42.8599 4.40961 35.2209 0 25.7978 0C16.3746 0 8.7356 4.40961 8.7356 9.84913C8.7356 15.2886 16.3746 19.6982 25.7978 19.6982Z" fill="#ECBE2D"/>
<path opacity="0.1" d="M25.7978 19.6982C35.2209 19.6982 42.8599 15.2886 42.8599 9.84913C42.8599 4.40961 35.2209 0 25.7978 0C16.3746 0 8.7356 4.40961 8.7356 9.84913C8.7356 15.2886 16.3746 19.6982 25.7978 19.6982Z" fill="black"/>
<path d="M25.7977 17.2907C21.7165 17.2907 17.7511 16.3573 14.938 14.7158C12.5272 13.3253 11.1464 11.5454 11.1464 9.83627C11.1464 8.12716 12.5272 6.34723 14.938 4.95677C17.7607 3.32812 21.7165 2.38184 25.7977 2.38184C29.879 2.38184 33.8444 3.31525 36.6575 4.95677C39.0683 6.34723 40.4523 8.12716 40.4523 9.83627C40.4523 11.5454 39.0683 13.3253 36.6575 14.7158C33.838 16.3573 29.879 17.2907 25.7977 17.2907Z" fill="#ECBE2D"/>
<path opacity="0.3" d="M25.7977 17.2907C21.7165 17.2907 17.7511 16.3573 14.938 14.7158C12.5272 13.3253 11.1464 11.5454 11.1464 9.83627C11.1464 8.12716 12.5272 6.34723 14.938 4.95677C17.7607 3.32812 21.7165 2.38184 25.7977 2.38184C29.879 2.38184 33.8444 3.31525 36.6575 4.95677C39.0683 6.34723 40.4523 8.12716 40.4523 9.83627C40.4523 11.5454 39.0683 13.3253 36.6575 14.7158C33.838 16.3573 29.879 17.2907 25.7977 17.2907Z" fill="black"/>
</svg>
