<svg width="67" height="67" viewBox="0 0 67 67" fill="none" xmlns="http://www.w3.org/2000/svg">
<g clip-path="url(#clip0)">
<path d="M36.6588 41.0689H31.3223V46.3151H36.6588V41.0689Z" fill="#CACACA"/>
<path d="M20.1469 28.0667C20.1275 28.0667 20.1077 28.0658 20.0881 28.0641C16.2323 27.7273 12.6184 25.407 9.91183 21.5307C7.01604 17.3844 5.42139 11.8869 5.42139 6.0508C5.42139 5.57369 5.80965 5.18582 6.28676 5.18582H14.4859C14.8367 5.18582 15.1289 5.45461 15.158 5.804C15.2422 6.8162 15.3475 7.83154 15.471 8.82149C15.4948 9.01333 15.4351 9.20608 15.3072 9.35094C15.179 9.4958 14.9951 9.57877 14.8016 9.57877H10.8929C10.6777 9.57877 10.4744 9.67286 10.335 9.83695C10.1963 10.0007 10.1365 10.2168 10.1717 10.4287C10.7714 14.0408 12.0218 17.475 13.5161 19.6146C15.1924 22.0156 17.0196 23.6163 18.8007 24.2437C18.9733 24.3045 19.1137 24.4326 19.1899 24.5989C19.4212 25.1042 19.6595 25.4179 19.912 25.7501C20.1419 26.0528 20.3797 26.3659 20.6248 26.8471C20.6649 26.9259 20.7052 27.0043 20.7459 27.0826C20.8589 27.3009 20.8442 27.5634 20.7073 27.7676C20.5813 27.9555 20.3705 28.0667 20.1469 28.0667Z" fill="#A4A4A4"/>
<path d="M46.8529 28.0667C46.6293 28.0667 46.4184 27.9555 46.2926 27.7677C46.1558 27.5633 46.1411 27.3008 46.2542 27.0825C46.2949 27.0043 46.3352 26.9259 46.3754 26.8471C46.6201 26.3663 46.8581 26.0532 47.0882 25.7501C47.3406 25.418 47.5788 25.1043 47.8101 24.5991C47.8863 24.4327 48.0266 24.3046 48.1993 24.2438C49.9799 23.6164 51.8075 22.0158 53.4839 19.6148C54.9783 17.4749 56.2286 14.0411 56.8284 10.4291C56.8635 10.217 56.8038 10.001 56.665 9.83695C56.5258 9.67324 56.3224 9.57889 56.1073 9.57889H52.1984C52.0048 9.57889 51.8208 9.49593 51.6929 9.35107C51.565 9.20621 51.5052 9.01345 51.529 8.82161C51.6524 7.83179 51.7578 6.81645 51.8422 5.80412C51.8711 5.45473 52.1633 5.18594 52.5141 5.18594H60.7133C61.1904 5.18594 61.5786 5.57394 61.5786 6.05092C61.5786 11.8873 59.9838 17.3847 57.0883 21.5307C54.3818 25.407 50.7677 27.7273 46.9119 28.0641C46.892 28.0658 46.8724 28.0667 46.8529 28.0667Z" fill="#A4A4A4"/>
<path d="M52.7378 0.312361C52.542 0.112539 52.2743 0 51.9945 0H15.0053C14.7258 0 14.458 0.112539 14.2623 0.312361C14.0662 0.512314 13.9592 0.782277 13.9653 1.06179C14.1752 10.9718 16.2306 20.2377 19.7532 27.1531C22.103 31.7655 24.9634 35.0413 28.0942 36.7919H38.9056C42.0362 35.0413 44.8967 31.7655 47.2464 27.1531C50.7691 20.2377 52.8247 10.9718 53.0343 1.06179C53.0406 0.782147 52.9336 0.512314 52.7378 0.312361Z" fill="#CACACA"/>
<path opacity="0.1" d="M22.545 27.1531C19.0223 20.2377 16.9669 10.9718 16.7571 1.06179C16.7509 0.782277 16.858 0.512314 17.0541 0.312361C17.2498 0.112539 17.5175 0 17.797 0H15.0053C14.7258 0 14.458 0.112539 14.2623 0.312361C14.0662 0.512314 13.9592 0.782277 13.9653 1.06179C14.1752 10.9718 16.2306 20.2377 19.7532 27.1531C22.103 31.7655 24.9634 35.0413 28.0942 36.7919H30.886C27.7553 35.0413 24.8947 31.7655 22.545 27.1531Z" fill="black"/>
<path d="M40.0707 50.8463V46.9451C40.0707 46.4206 39.6454 45.9955 39.1205 45.9955H27.8792C27.3543 45.9955 26.929 46.4206 26.929 46.9451V50.8463H40.0707Z" fill="#A4A4A4"/>
<path opacity="0.1" d="M30.5384 45.9955H27.8792C27.3543 45.9955 26.929 46.4206 26.929 46.9451V50.8463H29.5883V46.9451C29.5883 46.4206 30.0136 45.9955 30.5384 45.9955Z" fill="black"/>
<path d="M44.3223 63.5977V51.1636C44.3223 50.7928 44.0189 50.4895 43.6479 50.4895H23.3519C22.9809 50.4895 22.6776 50.7928 22.6776 51.1636V63.5977H44.3223Z" fill="#6E6E6E"/>
<path d="M40.3605 59.5728C40.3605 59.7952 40.1785 59.9772 39.9559 59.9772H27.0439C26.8213 59.9772 26.6393 59.7952 26.6393 59.5728V54.5409C26.6393 54.3184 26.8213 54.1365 27.0439 54.1365H39.9559C40.1785 54.1365 40.3605 54.3186 40.3605 54.5409V59.5728Z" fill="#CACACA"/>
<path opacity="0.1" d="M29.9929 59.5728V54.5409C29.9929 54.3184 30.175 54.1365 30.3976 54.1365H27.0439C26.8213 54.1365 26.6393 54.3186 26.6393 54.5409V59.573C26.6393 59.7953 26.8213 59.9773 27.0439 59.9773H30.3976C30.175 59.9772 29.9929 59.7952 29.9929 59.5728Z" fill="black"/>
<path d="M48.5739 66.326C48.5739 66.6967 48.2706 67 47.8996 67H19.1001C18.7292 67 18.4258 66.6967 18.4258 66.326V63.9031C18.4258 63.5324 18.7292 63.2291 19.1001 63.2291H47.8996C48.2706 63.2291 48.5739 63.5324 48.5739 63.9031V66.326Z" fill="#212121"/>
<path opacity="0.1" d="M21.7653 66.326V63.9031C21.7653 63.5324 22.0688 63.2291 22.4396 63.2291H19.1001C18.7292 63.2291 18.4258 63.5324 18.4258 63.9031V66.326C18.4258 66.6967 18.7292 67 19.1001 67H22.4396C22.0688 67 21.7653 66.6967 21.7653 66.326Z" fill="black"/>
<path d="M27.5797 36.5256V40.6164C27.5797 41.0181 27.9086 41.347 28.3106 41.347H38.6894C39.0912 41.347 39.4202 41.0182 39.4202 40.6164V36.5256H27.5797Z" fill="#A4A4A4"/>
<path opacity="0.1" d="M30.5615 40.6164V36.5256H27.5797V40.6164C27.5797 41.0181 27.9086 41.347 28.3106 41.347H31.2924C30.8904 41.3468 30.5615 41.0181 30.5615 40.6164Z" fill="black"/>
<path d="M33.4999 26.7346C39.0055 26.7346 43.4687 22.2737 43.4687 16.7709C43.4687 11.2682 39.0055 6.80731 33.4999 6.80731C27.9942 6.80731 23.531 11.2682 23.531 16.7709C23.531 22.2737 27.9942 26.7346 33.4999 26.7346Z" fill="#A4A4A4"/>
<path d="M36.0972 21.2431C36.0033 21.2431 35.909 21.2263 35.8186 21.1926L33.4999 20.3222L31.1812 21.1924C31.0909 21.2262 30.9964 21.2429 30.9026 21.2429C30.7376 21.2429 30.5741 21.1914 30.4363 21.0917C30.2208 20.9352 30.0986 20.6809 30.1103 20.415L30.2217 17.942L28.6773 16.0065C28.5111 15.7983 28.4607 15.5207 28.5432 15.2675C28.6254 15.0143 28.8295 14.8194 29.0862 14.7485L31.4735 14.0903L32.8378 12.0242C32.9848 11.802 33.2332 11.6682 33.4997 11.6682C33.766 11.6682 34.0147 11.802 34.1612 12.024L35.5258 14.0903L37.9132 14.7485C38.17 14.8194 38.3741 15.0143 38.4563 15.2675C38.5389 15.5207 38.4882 15.7983 38.3222 16.0065L36.7779 17.942L36.8891 20.415C36.9009 20.6812 36.7787 20.9353 36.5631 21.0917C36.4255 21.1915 36.262 21.2431 36.0972 21.2431Z" fill="white"/>
<path d="M25.7775 14.6227H23.766C23.6267 15.2566 23.5481 15.9129 23.5357 16.5856H25.7775C26.3196 16.5856 26.7589 16.1462 26.7589 15.6042C26.7589 15.0622 26.3196 14.6227 25.7775 14.6227Z" fill="#6E6E6E"/>
<path d="M25.7775 17.4726H23.5583C23.6053 18.1477 23.7193 18.8041 23.8943 19.4355H25.7775C26.3196 19.4355 26.7589 18.9961 26.7589 18.454C26.7589 17.912 26.3196 17.4726 25.7775 17.4726Z" fill="#6E6E6E"/>
<path d="M43.464 16.5856C43.4516 15.9129 43.3732 15.2566 43.2337 14.6227H41.1036C40.5614 14.6227 40.1221 15.0622 40.1221 15.6042C40.1221 16.1462 40.5614 16.5856 41.1036 16.5856H43.464Z" fill="#6E6E6E"/>
<path d="M41.1035 17.4726C40.5613 17.4726 40.122 17.912 40.122 18.454C40.122 18.9961 40.5613 19.4355 41.1035 19.4355H43.1055C43.2803 18.8041 43.3943 18.1477 43.4413 17.4726H41.1035Z" fill="#6E6E6E"/>
</g>
<defs>
<clipPath id="clip0">
<rect width="67" height="67" fill="white"/>
</clipPath>
</defs>
</svg>
