<svg width="48" height="48" viewBox="0 0 48 48" fill="none" xmlns="http://www.w3.org/2000/svg">
  <path d="M21.75 1.87639C23.1423 1.07254 24.8577 1.07254 26.25 1.87639L42.0346 10.9896C43.4269 11.7935 44.2846 13.2791 44.2846 14.8868V33.1133C44.2846 34.7209 43.4269 36.2065 42.0346 37.0104L26.25 46.1236C24.8577 46.9275 23.1423 46.9275 21.75 46.1236L5.96539 37.0104C4.57309 36.2065 3.71539 34.7209 3.71539 33.1132V14.8868C3.71539 13.2791 4.57309 11.7935 5.96539 10.9896L21.75 1.87639Z" stroke="url(#paint0_linear)" />
  <mask id="mask0" mask-type="alpha" maskUnits="userSpaceOnUse" x="4" y="2" width="40" height="44">
    <path d="M21.5 3.44338C23.047 2.55021 24.953 2.55021 26.5 3.44338L40.5526 11.5566C42.0996 12.4498 43.0526 14.1004 43.0526 15.8868V32.1132C43.0526 33.8996 42.0996 35.5502 40.5526 36.4434L26.5 44.5566C24.953 45.4498 23.047 45.4498 21.5 44.5566L7.44744 36.4434C5.90044 35.5502 4.94744 33.8996 4.94744 32.1132V15.8868C4.94744 14.1004 5.90044 12.4498 7.44744 11.5566L21.5 3.44338Z" fill="#D3E1ED" />
  </mask>
  <g mask="url(#mask0)">
    <rect width="48" height="49" fill="#C4C4C4"/>
  </g>
  <defs>
    <linearGradient id="paint0_linear" x1="24" y1="0" x2="24" y2="48" gradientUnits="userSpaceOnUse">
      <stop stop-color="#9FD1FF" />
      <stop offset="1" stop-color="#9FD1FF" stop-opacity="0.2" />
    </linearGradient>
  </defs>
</svg>
